<svg xmlns="http://www.w3.org/2000/svg" aria-hidden="true" style="position:absolute;width:0;height:0;overflow:hidden">
  <defs>
    <symbol id="icon-sword-logo-old" viewBox="0 0 39 32">
<path fill="#f5f5f5" style="fill: var(--color1, #f5f5f5)" d="M0 0h39.111v32h-39.111v-32z"></path>
<path fill="#ffd700" style="fill: var(--color2, #ffd700)" d="M18.837 26.487c-5.809 0-10.518-4.709-10.518-10.518s4.709-10.518 10.518-10.518c5.809 0 10.518 4.709 10.518 10.518s-4.709 10.518-10.518 10.518zM18.837 23.512c4.166 0 7.543-3.377 7.543-7.543s-3.377-7.543-7.543-7.543c-4.166 0-7.543 3.377-7.543 7.543s3.377 7.543 7.543 7.543z"></path>
<path fill="#000" style="fill: var(--color3, #000)" d="M29.154 15.969c0 5.698-4.619 10.316-10.316 10.316v0.403c5.92 0 10.719-4.799 10.719-10.719h-0.403zM18.837 5.653c5.698 0 10.316 4.619 10.316 10.316h0.403c0-5.92-4.799-10.719-10.719-10.719v0.403zM8.521 15.969c0-5.698 4.619-10.316 10.316-10.316v-0.403c-5.92 0-10.719 4.799-10.719 10.719h0.403zM18.837 26.286c-5.698 0-10.316-4.619-10.316-10.316h-0.403c0 5.92 4.799 10.719 10.719 10.719v-0.403zM26.179 15.969c0 4.055-3.287 7.342-7.342 7.342v0.403c4.277 0 7.744-3.467 7.744-7.744h-0.403zM18.837 8.628c4.055 0 7.342 3.287 7.342 7.342h0.403c0-4.277-3.467-7.744-7.744-7.744v0.403zM11.495 15.969c0-4.055 3.287-7.342 7.342-7.342v-0.403c-4.277 0-7.744 3.467-7.744 7.744h0.403zM18.837 23.311c-4.055 0-7.342-3.287-7.342-7.342h-0.403c0 4.277 3.467 7.744 7.744 7.744v-0.403z"></path>
<path fill="#ffd700" style="fill: var(--color2, #ffd700)" d="M18.784 31.799c-8.596 0-15.564-6.968-15.564-15.564s6.968-15.564 15.564-15.564c8.596 0 15.564 6.968 15.564 15.564s-6.968 15.564-15.564 15.564zM18.837 28.612c6.982 0 12.642-5.66 12.642-12.642s-5.66-12.642-12.642-12.642c-6.982 0-12.642 5.66-12.642 12.642s5.66 12.642 12.642 12.642z"></path>
<path fill="#000" style="fill: var(--color3, #000)" d="M34.147 16.235c0 8.485-6.878 15.363-15.363 15.363v0.403c8.707 0 15.765-7.058 15.765-15.765h-0.403zM18.784 0.872c8.485 0 15.363 6.878 15.363 15.363h0.403c0-8.707-7.058-15.765-15.765-15.765v0.403zM3.421 16.235c0-8.485 6.878-15.363 15.363-15.363v-0.403c-8.707 0-15.765 7.058-15.765 15.765h0.403zM18.784 31.597c-8.485 0-15.363-6.878-15.363-15.363h-0.403c0 8.707 7.058 15.765 15.765 15.765v-0.403zM31.278 15.969c0 6.871-5.57 12.441-12.441 12.441v0.403c7.093 0 12.844-5.75 12.844-12.844h-0.403zM18.837 3.528c6.871 0 12.441 5.57 12.441 12.441h0.403c0-7.093-5.75-12.844-12.844-12.844v0.403zM6.396 15.969c0-6.871 5.57-12.441 12.441-12.441v-0.403c-7.093 0-12.844 5.75-12.844 12.844h0.403zM18.837 28.41c-6.871 0-12.441-5.57-12.441-12.441h-0.403c0 7.093 5.75 12.844 12.844 12.844v-0.403z"></path>
<path fill="#808080" style="fill: var(--color4, #808080)" d="M38.742 18.851c0 0.5-0.405 0.906-0.906 0.906s-0.906-0.405-0.906-0.906c0-0.5 0.405-0.906 0.906-0.906s0.906 0.405 0.906 0.906z"></path>
<path fill="#808080" style="fill: var(--color4, #808080)" d="M7.715 13.753v5.099c0 0.556 0.451 1.006 1.006 1.006 0.264 0 0.505-0.102 0.684-0.268h0.001l1.831-1.831 1.832 1.831c0.18 0.166 0.42 0.268 0.684 0.268 0.556 0 1.006-0.451 1.006-1.006v-5.099c0-0.556-0.451-1.006-1.006-1.006s-1.006 0.451-1.006 1.006v2.669l-0.831-0.831c-0.179-0.179-0.41-0.277-0.645-0.293v-0.002c-0.011 0-0.022 0-0.034 0.001s-0.022-0.001-0.034-0.001v0.002c-0.235 0.016-0.465 0.113-0.645 0.293l-0.831 0.831v-2.669c0-0.556-0.451-1.006-1.006-1.006s-1.006 0.451-1.006 1.006z"></path>
<path fill="#000" style="fill: var(--color3, #000)" d="M9.405 19.589v-0.201h-0.079l-0.058 0.054 0.137 0.148zM9.406 19.589v0.201h0.083l0.059-0.059-0.142-0.142zM11.237 17.759l0.142-0.142-0.142-0.142-0.142 0.142 0.142 0.142zM13.067 19.589l-0.142 0.142 0.059 0.059h0.083v-0.201zM13.068 19.589l0.137-0.148-0.058-0.054h-0.079v0.201zM12.746 16.422l-0.142 0.142 0.344 0.344v-0.486h-0.201zM11.27 15.298h-0.201v0.188l0.188 0.012 0.013-0.201zM11.27 15.296h0.201v-0.201h-0.201v0.201zM11.237 15.296l-0.007 0.201 0.007 0 0.007-0-0.007-0.201zM11.203 15.296v-0.201h-0.201v0.201h0.201zM11.203 15.298l0.013 0.201 0.188-0.012v-0.188h-0.201zM9.727 16.422h-0.201v0.486l0.344-0.344-0.142-0.142zM7.916 18.851v-5.099h-0.403v5.099h0.403zM8.721 19.656c-0.445 0-0.805-0.36-0.805-0.805h-0.403c0 0.667 0.541 1.208 1.208 1.208v-0.403zM9.268 19.442c-0.144 0.133-0.336 0.215-0.547 0.215v0.403c0.317 0 0.606-0.122 0.821-0.322l-0.274-0.295zM9.406 19.388h-0.001v0.403h0.001v-0.403zM11.095 17.616l-1.831 1.831 0.285 0.285 1.831-1.831-0.285-0.285zM11.095 17.901l1.831 1.831 0.285-0.285-1.831-1.831-0.285 0.285zM13.067 19.79h0.001v-0.403h-0.001v0.403zM12.932 19.737c0.215 0.2 0.504 0.322 0.821 0.322v-0.403c-0.211 0-0.404-0.081-0.547-0.215l-0.274 0.295zM13.753 20.059c0.667 0 1.208-0.541 1.208-1.208h-0.403c0 0.445-0.36 0.805-0.805 0.805v0.403zM14.96 18.851v-5.099h-0.403v5.099h0.403zM14.96 13.753c0-0.667-0.541-1.208-1.208-1.208v0.403c0.445 0 0.805 0.36 0.805 0.805h0.403zM13.753 12.545c-0.667 0-1.208 0.541-1.208 1.208h0.403c0-0.445 0.36-0.805 0.805-0.805v-0.403zM12.545 13.753v2.669h0.403v-2.669h-0.403zM12.889 16.279l-0.831-0.831-0.285 0.285 0.831 0.831 0.285-0.285zM12.057 15.448c-0.215-0.215-0.492-0.332-0.773-0.351l-0.027 0.402c0.188 0.012 0.372 0.090 0.515 0.234l0.285-0.285zM11.069 15.296v0.002h0.403v-0.002h-0.403zM11.244 15.497c0.009-0 0.018-0 0.027-0v-0.403c-0.013 0-0.027 0-0.040 0.001l0.013 0.402zM11.244 15.095c-0.013-0-0.027-0.001-0.040-0.001v0.403c0.009 0 0.018 0 0.027 0l0.013-0.402zM11.002 15.296v0.002h0.403v-0.002h-0.403zM10.701 15.733c0.144-0.144 0.328-0.222 0.515-0.234l-0.027-0.402c-0.281 0.019-0.558 0.136-0.773 0.351l0.285 0.285zM9.87 16.564l0.831-0.831-0.285-0.285-0.831 0.831 0.285 0.285zM9.526 13.753v2.669h0.403v-2.669h-0.403zM8.721 12.948c0.445 0 0.805 0.36 0.805 0.805h0.403c0-0.667-0.541-1.208-1.208-1.208v0.403zM7.916 13.753c0-0.445 0.36-0.805 0.805-0.805v-0.403c-0.667 0-1.208 0.541-1.208 1.208h0.403z"></path>
<path fill="#808080" style="fill: var(--color4, #808080)" d="M23.816 12.746h2.952c1.263 0.018 2.281 1.047 2.281 2.314 0 0.872-0.482 1.631-1.194 2.025l0.957 1.101c0.365 0.419 0.32 1.055-0.099 1.42s-1.055 0.32-1.42-0.099l-2.113-2.431c-0.031-0.031-0.059-0.064-0.086-0.099l-0.002-0.002 0-0c-0.128-0.169-0.203-0.379-0.203-0.607 0-0.556 0.451-1.006 1.006-1.006h0.942c0.119-0.031 0.207-0.139 0.207-0.268 0-0.131-0.091-0.241-0.213-0.269h-2.010v4.025c0 0.556-0.451 1.006-1.006 1.006s-1.006-0.451-1.006-1.006v-5.099c0-0.556 0.451-1.006 1.006-1.006z"></path>
<path fill="#000" style="fill: var(--color3, #000)" d="M26.767 12.746l0.003-0.201h-0.003v0.201zM27.855 17.086l-0.098-0.176-0.217 0.12 0.163 0.188 0.152-0.132zM28.812 18.187v0zM27.293 19.507v0zM25.18 17.077l0.152-0.132-0.004-0.005-0.005-0.005-0.143 0.142zM25.094 16.978l0.16-0.122-0.004-0.005-0.004-0.005-0.152 0.132zM25.092 16.976l-0.132-0.152-0.152 0.132 0.132 0.152 0.152-0.132zM25.092 16.976l0.132 0.152 0.142-0.123-0.114-0.15-0.16 0.122zM26.838 15.363v0.201h0.026l0.025-0.006-0.050-0.195zM26.831 14.826l0.046-0.196-0.023-0.005h-0.023v0.201zM24.822 14.826v-0.201h-0.201v0.201h0.201zM26.298 12.545h-2.482v0.403h2.482v-0.403zM26.566 12.545h-0.268v0.403h0.268v-0.403zM26.767 12.545h-0.201v0.403h0.201v-0.403zM29.249 15.061c0-1.377-1.107-2.496-2.479-2.515l-0.006 0.403c1.153 0.016 2.083 0.956 2.083 2.113h0.403zM27.952 17.262c0.773-0.429 1.297-1.254 1.297-2.201h-0.403c0 0.796-0.44 1.489-1.090 1.849l0.195 0.352zM28.964 18.055l-0.957-1.101-0.304 0.264 0.957 1.101 0.304-0.264zM28.845 19.759c0.503-0.438 0.557-1.2 0.119-1.704l-0.304 0.264c0.292 0.335 0.256 0.844-0.079 1.136l0.264 0.304zM27.141 19.639c0.438 0.503 1.2 0.557 1.704 0.119l-0.264-0.304c-0.336 0.292-0.844 0.256-1.136-0.079l-0.304 0.264zM25.028 17.209l2.113 2.431 0.304-0.264-2.113-2.431-0.304 0.264zM24.934 17.1c0.032 0.042 0.066 0.081 0.103 0.118l0.286-0.283c-0.025-0.025-0.048-0.051-0.069-0.079l-0.32 0.244zM24.94 17.108l0.002 0.002 0.304-0.264-0.002-0.002-0.304 0.264zM24.96 16.824l-0 0 0.264 0.304 0-0-0.264-0.304zM24.688 16.369c0 0.273 0.091 0.526 0.244 0.728l0.321-0.243c-0.102-0.135-0.163-0.303-0.163-0.485h-0.403zM25.895 15.161c-0.667 0-1.208 0.541-1.208 1.208h0.403c0-0.445 0.36-0.805 0.805-0.805v-0.403zM25.968 15.161h-0.073v0.403h0.073v-0.403zM26.838 15.161h-0.87v0.403h0.87v-0.403zM26.843 15.095c0 0.035-0.024 0.064-0.056 0.073l0.101 0.39c0.206-0.053 0.358-0.24 0.358-0.463h-0.403zM26.786 15.022c0.033 0.008 0.058 0.038 0.058 0.073h0.403c0-0.226-0.157-0.416-0.369-0.465l-0.092 0.392zM24.822 15.027h2.010v-0.403h-2.010v0.403zM25.023 16.182v-1.356h-0.403v1.356h0.403zM25.023 18.851v-2.669h-0.403v2.669h0.403zM23.816 20.059c0.667 0 1.208-0.541 1.208-1.208h-0.403c0 0.445-0.36 0.805-0.805 0.805v0.403zM22.608 18.851c0 0.667 0.541 1.208 1.208 1.208v-0.403c-0.445 0-0.805-0.36-0.805-0.805h-0.403zM22.608 13.753v5.099h0.403v-5.099h-0.403zM23.816 12.545c-0.667 0-1.208 0.541-1.208 1.208h0.403c0-0.445 0.36-0.805 0.805-0.805v-0.403z"></path>
<path fill="#808080" style="fill: var(--color4, #808080)" d="M31.597 12.746h1.677c1.964 0 3.556 1.592 3.556 3.556s-1.592 3.556-3.556 3.556h-2.885v-0.009c-0.492-0.066-0.872-0.487-0.872-0.997v-5.099c0-0.556 0.451-1.006 1.006-1.006h1.073zM33.275 17.711c0.778 0 1.409-0.631 1.409-1.409s-0.631-1.409-1.409-1.409h-1.744v2.818h1.744z"></path>
<path fill="#000" style="fill: var(--color3, #000)" d="M30.39 19.857h-0.201v0.201h0.201v-0.201zM30.39 19.849h0.201v-0.176l-0.175-0.023-0.027 0.2zM31.53 14.893v-0.201h-0.201v0.201h0.201zM31.53 17.711h-0.201v0.201h0.201v-0.201zM33.275 12.545h-1.677v0.403h1.677v-0.403zM33.275 12.948c1.852 0 3.354 1.502 3.354 3.354h0.403c0-2.075-1.682-3.757-3.757-3.757v0.403zM36.629 16.302c0 1.852-1.502 3.354-3.354 3.354v0.403c2.075 0 3.757-1.682 3.757-3.757h-0.403zM30.524 20.059h2.751v-0.403h-2.751v0.403zM30.39 20.059h0.134v-0.403h-0.134v0.403zM30.189 19.849v0.009h0.403v-0.009h-0.403zM29.317 18.851c0 0.613 0.456 1.118 1.047 1.197l0.053-0.399c-0.394-0.052-0.697-0.39-0.697-0.798h-0.403zM29.317 13.753v5.099h0.403v-5.099h-0.403zM30.524 12.545c-0.667 0-1.208 0.541-1.208 1.208h0.403c0-0.445 0.36-0.805 0.805-0.805v-0.403zM31.597 12.545h-1.073v0.403h1.073v-0.403zM33.275 17.912c0.889 0 1.61-0.721 1.61-1.61h-0.403c0 0.667-0.541 1.208-1.208 1.208v0.403zM34.885 16.302c0-0.889-0.721-1.61-1.61-1.61v0.403c0.667 0 1.208 0.541 1.208 1.208h0.403zM31.53 15.094h1.744v-0.403h-1.744v0.403zM31.732 16.182v-1.289h-0.403v1.289h0.403zM31.732 17.711v-1.529h-0.403v1.529h0.403zM33.275 17.509h-1.744v0.403h1.744v-0.403z"></path>
<path fill="#808080" style="fill: var(--color4, #808080)" d="M12.344 23.010h1.409v-0.008c0.53-0.066 0.939-0.518 0.939-1.065s-0.41-0.999-0.939-1.065v-0.008h-4.226c-0.556 0-1.006 0.451-1.006 1.006v5.099c0 0.51 0.38 0.932 0.872 0.997v0.009l4.293-0.002c0.562-0.035 1.006-0.501 1.006-1.071s-0.445-1.037-1.006-1.071v-0.002h-1.342v-0.002c-0.022 0.001-0.045 0.002-0.067 0.002h-1.744v-2.818h1.744c0.022 0 0.045 0.001 0.067 0.002v-0.002z"></path>
<path fill="#000" style="fill: var(--color3, #000)" d="M12.344 23.010v-0.201h-0.201v0.201h0.201zM13.753 23.010v0.201h0.201v-0.201h-0.201zM13.753 23.002l-0.025-0.2-0.176 0.022v0.178h0.201zM13.753 20.872h-0.201v0.178l0.176 0.022 0.025-0.2zM13.753 20.864h0.201v-0.201h-0.201v0.201zM9.392 27.966h0.201v-0.176l-0.175-0.023-0.027 0.2zM9.392 27.975h-0.201v0.201h0.201v-0.201zM13.686 27.975v0.201h0.201v-0.201h-0.201zM13.686 27.973l-0.012-0.201-0.189 0.012v0.189h0.201zM13.686 25.83h-0.201v0.189l0.189 0.012 0.012-0.201zM13.686 25.828h0.201v-0.201h-0.201v0.201zM12.344 25.828h-0.201v0.201h0.201v-0.201zM12.344 25.827h0.201v-0.211l-0.211 0.010 0.009 0.201zM10.533 25.828h-0.201v0.201h0.201v-0.201zM10.533 23.010v-0.201h-0.201v0.201h0.201zM12.344 23.012l-0.009 0.201 0.211 0.010v-0.211h-0.201zM13.618 22.809h-1.275v0.403h1.275v-0.403zM13.753 22.809h-0.134v0.403h0.134v-0.403zM13.551 23.002v0.008h0.403v-0.008h-0.403zM14.491 21.937c0 0.445-0.333 0.812-0.763 0.865l0.050 0.399c0.629-0.078 1.116-0.615 1.116-1.265h-0.403zM13.728 21.072c0.43 0.054 0.763 0.421 0.763 0.865h0.403c0-0.65-0.487-1.186-1.116-1.265l-0.050 0.399zM13.551 20.864v0.008h0.403v-0.008h-0.403zM13.618 21.065h0.134v-0.403h-0.134v0.403zM12.277 21.065h1.342v-0.403h-1.342v0.403zM11.136 21.065h1.14v-0.403h-1.14v0.403zM10.6 21.065h0.537v-0.403h-0.537v0.403zM9.526 21.065h1.073v-0.403h-1.073v0.403zM8.721 21.87c0-0.445 0.36-0.805 0.805-0.805v-0.403c-0.667 0-1.208 0.541-1.208 1.208h0.403zM8.721 26.969v-5.099h-0.403v5.099h0.403zM9.419 27.766c-0.394-0.052-0.697-0.39-0.697-0.798h-0.403c0 0.613 0.456 1.118 1.047 1.197l0.053-0.399zM9.593 27.975v-0.009h-0.403v0.009h0.403zM9.526 27.774h-0.134v0.403h0.134v-0.403zM11.069 27.774h-1.543v0.403h1.543v-0.403zM12.277 27.774h-1.208v0.403h1.208v-0.403zM13.618 27.774h-1.342v0.403h1.342v-0.403zM13.686 27.774h-0.067v0.403h0.067v-0.403zM13.484 27.973v0.002h0.403v-0.002h-0.403zM14.491 26.901c0 0.463-0.361 0.842-0.817 0.87l0.025 0.402c0.667-0.041 1.195-0.595 1.195-1.272h-0.403zM13.673 26.031c0.456 0.028 0.817 0.407 0.817 0.87h0.403c0-0.677-0.528-1.231-1.195-1.272l-0.025 0.402zM13.484 25.828v0.002h0.403v-0.002h-0.403zM13.618 26.029h0.067v-0.403h-0.067v0.403zM12.344 26.029h1.275v-0.403h-1.275v0.403zM12.143 25.827v0.002h0.403v-0.002h-0.403zM12.277 26.029c0.026 0 0.051-0.001 0.076-0.002l-0.019-0.402c-0.019 0.001-0.038 0.001-0.058 0.001v0.403zM11.069 26.029h1.208v-0.403h-1.208v0.403zM10.533 26.029h0.537v-0.403h-0.537v0.403zM10.331 24.299v1.529h0.403v-1.529h-0.403zM10.331 23.010v1.289h0.403v-1.289h-0.403zM11.136 22.809h-0.604v0.403h0.604v-0.403zM12.277 22.809h-1.14v0.403h1.14v-0.403zM12.353 22.811c-0.025-0.001-0.051-0.002-0.077-0.002v0.403c0.019 0 0.039 0 0.058 0.001l0.019-0.402zM12.143 23.010v0.002h0.403v-0.002h-0.403z"></path>
<path fill="#808080" style="fill: var(--color4, #808080)" d="M12.918 25.224h-1.2v-0.002c-0.437-0.026-0.783-0.376-0.783-0.803s0.346-0.778 0.783-0.803v-0.002h1.252v0.002c0.437 0.026 0.783 0.376 0.783 0.803s-0.346 0.778-0.783 0.803v0.002h-0.052z"></path>
<path fill="#000" style="fill: var(--color3, #000)" d="M11.718 25.224h-0.201v0.201h0.201v-0.201zM11.718 25.223h0.201v-0.19l-0.189-0.011-0.012 0.201zM11.718 23.616l0.012 0.201 0.189-0.011v-0.19h-0.201zM11.718 23.614v-0.201h-0.201v0.201h0.201zM12.97 23.614h0.201v-0.201h-0.201v0.201zM12.97 23.616h-0.201v0.19l0.189 0.011 0.012-0.201zM12.97 25.223l-0.012-0.201-0.189 0.011v0.19h0.201zM12.97 25.224v0.201h0.201v-0.201h-0.201zM12.918 25.023h-1.148v0.403h1.148v-0.403zM11.77 25.023h-0.052v0.403h0.052v-0.403zM11.919 25.224v-0.002h-0.403v0.002h0.403zM11.73 25.022c-0.337-0.020-0.593-0.288-0.593-0.603h-0.403c0 0.541 0.436 0.972 0.972 1.004l0.024-0.402zM11.136 24.419c0-0.314 0.256-0.582 0.593-0.603l-0.024-0.402c-0.536 0.032-0.972 0.463-0.972 1.004h0.403zM11.919 23.616v-0.002h-0.403v0.002h0.403zM11.718 23.816h0.052v-0.403h-0.052v0.403zM11.77 23.816h1.148v-0.403h-1.148v0.403zM12.918 23.816h0.052v-0.403h-0.052v0.403zM12.769 23.614v0.002h0.403v-0.002h-0.403zM12.958 23.817c0.337 0.020 0.593 0.288 0.593 0.603h0.403c0-0.541-0.436-0.973-0.972-1.004l-0.024 0.402zM13.551 24.419c0 0.314-0.256 0.582-0.593 0.603l0.024 0.402c0.536-0.032 0.972-0.463 0.972-1.004h-0.403zM12.769 25.223v0.002h0.403v-0.002h-0.403zM12.97 25.023h-0.052v0.403h0.052v-0.403z"></path>
<path fill="#808080" style="fill: var(--color4, #808080)" d="M23.916 26.969c0 0.5-0.405 0.906-0.906 0.906s-0.906-0.405-0.906-0.906c0-0.5 0.405-0.906 0.906-0.906s0.906 0.405 0.906 0.906z"></path>
<path fill="#808080" style="fill: var(--color4, #808080)" d="M18.382 20.864h2.214v0.002c0.524 0.034 0.939 0.471 0.939 1.004s-0.415 0.97-0.939 1.004v0.002h-1.208v4.149h-0.002c-0.034 0.53-0.471 0.95-1.004 0.95s-0.97-0.419-1.004-0.95h-0.002v-4.149h-1.14v-0.002c-0.524-0.034-0.939-0.471-0.939-1.004s0.415-0.97 0.939-1.004v-0.002h2.147z"></path>
<path fill="#000" style="fill: var(--color3, #000)" d="M20.595 20.864h0.201v-0.201h-0.201v0.201zM20.595 20.866h-0.201v0.188l0.188 0.012 0.013-0.201zM20.595 22.874l-0.013-0.201-0.188 0.012v0.188h0.201zM20.595 22.876v0.201h0.201v-0.201h-0.201zM19.388 22.876v-0.201h-0.201v0.201h0.201zM19.388 27.025v0.201h0.201v-0.201h-0.201zM19.386 27.025v-0.201h-0.189l-0.012 0.188 0.201 0.013zM17.377 27.025l0.201-0.013-0.012-0.188h-0.189v0.201zM17.375 27.025h-0.201v0.201h0.201v-0.201zM17.375 22.876h0.201v-0.201h-0.201v0.201zM16.235 22.876h-0.201v0.201h0.201v-0.201zM16.235 22.874h0.201v-0.188l-0.188-0.012-0.013 0.201zM16.235 20.866l0.013 0.201 0.188-0.012v-0.188h-0.201zM16.235 20.864v-0.201h-0.201v0.201h0.201zM20.528 20.662h-2.147v0.403h2.147v-0.403zM20.595 20.662h-0.067v0.403h0.067v-0.403zM20.797 20.866v-0.002h-0.403v0.002h0.403zM21.736 21.87c0-0.64-0.498-1.163-1.127-1.205l-0.026 0.402c0.419 0.028 0.751 0.377 0.751 0.803h0.403zM20.609 23.075c0.63-0.041 1.127-0.565 1.127-1.205h-0.403c0 0.426-0.332 0.776-0.751 0.803l0.026 0.402zM20.797 22.876v-0.002h-0.403v0.002h0.403zM20.528 23.078h0.067v-0.403h-0.067v0.403zM19.388 23.078h1.14v-0.403h-1.14v0.403zM19.187 22.876v4.081h0.403v-4.081h-0.403zM19.187 26.957v0.068h0.403v-0.068h-0.403zM19.388 26.824h-0.002v0.403h0.002v-0.403zM19.185 27.012c-0.028 0.427-0.379 0.761-0.803 0.761v0.403c0.642 0 1.164-0.504 1.205-1.138l-0.402-0.026zM18.382 27.774c-0.425 0-0.775-0.334-0.803-0.761l-0.402 0.026c0.041 0.634 0.563 1.138 1.205 1.138v-0.403zM17.377 26.824h-0.002v0.403h0.002v-0.403zM17.577 27.025v-0.068h-0.403v0.068h0.403zM17.577 26.957v-4.081h-0.403v4.081h0.403zM16.302 23.078h1.073v-0.403h-1.073v0.403zM16.235 23.078h0.067v-0.403h-0.067v0.403zM16.034 22.874v0.002h0.403v-0.002h-0.403zM15.094 21.87c0 0.64 0.498 1.163 1.127 1.205l0.026-0.402c-0.419-0.028-0.751-0.377-0.751-0.803h-0.403zM16.222 20.665c-0.63 0.041-1.127 0.565-1.127 1.205h0.403c0-0.426 0.332-0.776 0.751-0.803l-0.026-0.402zM16.034 20.864v0.002h0.403v-0.002h-0.403zM16.302 20.662h-0.067v0.403h0.067v-0.403zM18.382 20.662h-2.080v0.403h2.080v-0.403z"></path>
<path fill="#808080" style="fill: var(--color4, #808080)" d="M2.281 20.864c0.29 0 0.551 0.123 0.735 0.319l0.002-0.001 2.551 2.934v-2.246c0-0.556 0.451-1.006 1.006-1.006s1.006 0.451 1.006 1.006v5.166h-0.002c-0.034 0.524-0.471 0.939-1.004 0.939-0.302 0-0.573-0.133-0.757-0.344l-0.002 0.002-2.395-2.92-0.133-0.153v2.476c0 0.556-0.451 1.006-1.006 1.006s-1.006-0.451-1.006-1.006v-5.166c0-0.556 0.451-1.006 1.006-1.006z"></path>
<path fill="#000" style="fill: var(--color3, #000)" d="M3.016 21.183l-0.073 0.069 0.066 0.071 0.073-0.064-0.066-0.076zM3.017 21.181l0.076-0.066-0.066-0.076-0.076 0.066 0.066 0.076zM5.568 24.116l-0.076 0.066 0.177 0.203v-0.269h-0.101zM7.581 27.036v0.101h0.101v-0.101h-0.101zM7.579 27.036v-0.101h-0.094l-0.006 0.094 0.1 0.007zM5.817 27.631l0.076-0.066-0.064-0.073-0.075 0.062 0.064 0.078zM5.815 27.633l-0.078 0.064 0.064 0.078 0.078-0.064-0.064-0.078zM3.42 24.712l0.078-0.064-0.001-0.001-0.001-0.001-0.076 0.066zM3.287 24.559l0.076-0.066-0.177-0.203v0.269h0.101zM3.089 21.114c-0.202-0.216-0.489-0.351-0.808-0.351v0.201c0.261 0 0.496 0.11 0.661 0.287l0.147-0.138zM2.951 21.105l-0.002 0.001 0.132 0.152 0.002-0.001-0.132-0.152zM5.644 24.050l-2.551-2.934-0.152 0.132 2.551 2.934 0.152-0.132zM5.669 24.116v-2.246h-0.201v2.246h0.201zM5.669 21.87c0-0.5 0.405-0.906 0.906-0.906v-0.201c-0.611 0-1.107 0.496-1.107 1.107h0.201zM6.574 20.964c0.5 0 0.906 0.405 0.906 0.906h0.201c0-0.611-0.496-1.107-1.107-1.107v0.201zM7.48 21.87v5.099h0.201v-5.099h-0.201zM7.48 26.969v0.067h0.201v-0.067h-0.201zM7.581 26.935h-0.002v0.201h0.002v-0.201zM7.478 27.029c-0.031 0.472-0.424 0.845-0.904 0.845v0.201c0.587 0 1.067-0.456 1.104-1.033l-0.201-0.013zM6.574 27.874c-0.272 0-0.516-0.12-0.682-0.309l-0.151 0.133c0.203 0.232 0.501 0.378 0.833 0.378v-0.201zM5.753 27.553l-0.002 0.002 0.128 0.156 0.002-0.002-0.128-0.156zM5.893 27.569l-2.395-2.92-0.156 0.128 2.395 2.92 0.156-0.128zM3.211 24.625l0.133 0.153 0.152-0.132-0.133-0.153-0.152 0.132zM3.388 27.036v-2.476h-0.201v2.476h0.201zM2.281 28.143c0.611 0 1.107-0.496 1.107-1.107h-0.201c0 0.5-0.405 0.906-0.906 0.906v0.201zM1.174 27.036c0 0.611 0.496 1.107 1.107 1.107v-0.201c-0.5 0-0.906-0.405-0.906-0.906h-0.201zM1.174 21.87v5.166h0.201v-5.166h-0.201zM2.281 20.763c-0.611 0-1.107 0.496-1.107 1.107h0.201c0-0.5 0.405-0.906 0.906-0.906v-0.201z"></path>
<path fill="#808080" style="fill: var(--color4, #808080)" d="M26.566 21.87c0-0.556-0.451-1.006-1.006-1.006s-1.006 0.451-1.006 1.006v3.153h0.006c0.104 1.648 1.473 2.952 3.147 2.952s3.043-1.304 3.147-2.952h0.006v-3.153c0-0.556-0.451-1.006-1.006-1.006s-1.006 0.451-1.006 1.006v3.153c0 0.63-0.511 1.14-1.14 1.14s-1.14-0.511-1.14-1.14v0-3.153z"></path>
<path fill="#000" style="fill: var(--color3, #000)" d="M24.553 25.023h-0.201v0.201h0.201v-0.201zM24.56 25.023l0.201-0.013-0.012-0.189h-0.189v0.201zM30.853 25.023v-0.201h-0.189l-0.012 0.189 0.201 0.013zM30.86 25.023v0.201h0.201v-0.201h-0.201zM28.847 21.87v0zM28.847 25.023v0zM26.566 25.023h0.201v-0.201h-0.201v0.201zM26.566 25.023h-0.201v0.201h0.201v-0.201zM25.56 21.065c0.445 0 0.805 0.36 0.805 0.805h0.403c0-0.667-0.541-1.208-1.208-1.208v0.403zM24.755 21.87c0-0.445 0.36-0.805 0.805-0.805v-0.403c-0.667 0-1.208 0.541-1.208 1.208h0.403zM24.352 21.87v3.153h0.403v-3.153h-0.403zM24.553 25.224h0.006v-0.403h-0.006v0.403zM24.359 25.036c0.11 1.753 1.567 3.14 3.348 3.14v-0.403c-1.567 0-2.849-1.221-2.946-2.763l-0.402 0.025zM27.706 28.176c1.781 0 3.237-1.387 3.348-3.14l-0.402-0.025c-0.097 1.542-1.379 2.763-2.946 2.763v0.403zM30.853 25.224h0.006v-0.403h-0.006v0.403zM31.061 25.023v-3.153h-0.403v3.153h0.403zM31.061 21.87c0-0.667-0.541-1.208-1.208-1.208v0.403c0.445 0 0.805 0.36 0.805 0.805h0.403zM29.853 20.662c-0.667 0-1.208 0.541-1.208 1.208h0.403c0-0.445 0.36-0.805 0.805-0.805v-0.403zM28.646 21.87v3.153h0.403v-3.153h-0.403zM28.646 25.023c0 0.519-0.421 0.939-0.939 0.939v0.403c0.741 0 1.342-0.601 1.342-1.342h-0.403zM27.706 25.962c-0.519 0-0.939-0.421-0.939-0.939h-0.403c0 0.741 0.601 1.342 1.342 1.342v-0.403zM26.566 24.822v0 0zM26.767 25.023v-0.268h-0.403v0.268h0.403zM26.767 24.755v-2.885h-0.403v2.885h0.403z"></path>
<path fill="#808080" style="fill: var(--color4, #808080)" d="M35.77 21.39c0.013 0.023 0.024 0.047 0.035 0.071l2.469 4.952c0.105 0.159 0.167 0.35 0.167 0.555 0 0.556-0.451 1.006-1.006 1.006h-5.099c-0.556 0-1.006-0.451-1.006-1.006 0-0.205 0.061-0.396 0.167-0.555l2.469-4.952c0.157-0.352 0.51-0.598 0.92-0.598 0.382 0 0.714 0.213 0.885 0.527zM35.867 25.962l-0.982-1.969-0.982 1.969h1.964z"></path>
<path fill="#000" style="fill: var(--color3, #000)" d="M35.77 21.39v0zM35.805 21.462l-0.184 0.082 0.002 0.004 0.002 0.004 0.18-0.090zM38.273 26.413l-0.18 0.090 0.005 0.011 0.007 0.010 0.168-0.111zM37.434 27.975v0zM32.335 27.975v0zM31.496 26.413l0.168 0.111 0.007-0.010 0.006-0.011-0.18-0.090zM33.965 21.462l0.18 0.090 0.002-0.004 0.002-0.004-0.184-0.082zM35.867 25.962v0.201h0.325l-0.145-0.291-0.18 0.090zM34.885 23.993l0.18-0.090-0.18-0.361-0.18 0.361 0.18 0.090zM33.903 25.962l-0.18-0.090-0.145 0.291h0.325v-0.201zM35.593 21.486c0.010 0.019 0.020 0.038 0.028 0.057l0.368-0.163c-0.013-0.029-0.027-0.058-0.042-0.086l-0.354 0.192zM35.625 21.552l2.469 4.952 0.36-0.18-2.469-4.952-0.36 0.18zM38.106 26.524c0.084 0.127 0.133 0.28 0.133 0.444h0.403c0-0.246-0.074-0.475-0.2-0.666l-0.336 0.222zM38.239 26.969c0 0.445-0.36 0.805-0.805 0.805v0.403c0.667 0 1.208-0.541 1.208-1.208h-0.403zM37.434 27.774h-5.099v0.403h5.099v-0.403zM32.335 27.774c-0.445 0-0.805-0.36-0.805-0.805h-0.403c0 0.667 0.541 1.208 1.208 1.208v-0.403zM31.53 26.969c0-0.165 0.049-0.317 0.133-0.444l-0.336-0.222c-0.127 0.191-0.2 0.42-0.2 0.666h0.403zM31.676 26.503l2.469-4.952-0.36-0.18-2.469 4.952 0.36 0.18zM34.149 21.543c0.125-0.282 0.408-0.478 0.736-0.478v-0.403c-0.493 0-0.916 0.295-1.104 0.717l0.368 0.163zM34.885 21.065c0.305 0 0.571 0.17 0.708 0.421l0.354-0.192c-0.204-0.376-0.603-0.632-1.062-0.632v0.403zM36.047 25.872l-0.982-1.969-0.36 0.18 0.982 1.969 0.36-0.18zM34.705 23.903l-0.982 1.969 0.36 0.18 0.982-1.969-0.36-0.18zM33.903 26.164h1.964v-0.403h-1.964v0.403z"></path>
<path fill="#808080" style="fill: var(--color4, #808080)" d="M18.784 19.656c-1.89 0-3.421-1.532-3.421-3.421s1.532-3.421 3.421-3.421c1.89 0 3.421 1.532 3.421 3.421s-1.532 3.421-3.421 3.421zM18.784 17.506c0.774 0 1.401-0.627 1.401-1.401s-0.627-1.401-1.401-1.401c-0.774 0-1.401 0.627-1.401 1.401s0.627 1.401 1.401 1.401z"></path>
<path fill="#000" style="fill: var(--color3, #000)" d="M22.004 16.235c0 1.778-1.442 3.22-3.22 3.22v0.403c2.001 0 3.623-1.622 3.623-3.623h-0.403zM18.784 13.015c1.778 0 3.22 1.442 3.22 3.22h0.403c0-2.001-1.622-3.623-3.623-3.623v0.403zM15.564 16.235c0-1.778 1.442-3.22 3.22-3.22v-0.403c-2.001 0-3.623 1.622-3.623 3.623h0.403zM18.784 19.455c-1.778 0-3.22-1.442-3.22-3.22h-0.403c0 2.001 1.622 3.623 3.623 3.623v-0.403zM19.984 16.104c0 0.663-0.537 1.2-1.2 1.2v0.403c0.885 0 1.602-0.717 1.602-1.602h-0.403zM18.784 14.905c0.663 0 1.2 0.537 1.2 1.2h0.403c0-0.885-0.717-1.602-1.602-1.602v0.403zM17.584 16.104c0-0.663 0.537-1.2 1.2-1.2v-0.403c-0.885 0-1.602 0.717-1.602 1.602h0.403zM18.784 17.304c-0.663 0-1.2-0.537-1.2-1.2h-0.403c0 0.885 0.717 1.602 1.602 1.602v-0.403z"></path>
<path fill="#808080" style="fill: var(--color4, #808080)" d="M5.769 12.746h-2.952c-1.223 0-2.214 0.991-2.214 2.214s0.991 2.214 2.214 2.214h1.61c0.185 0 0.335 0.15 0.335 0.335s-0.15 0.335-0.335 0.335h-2.818c-0.556 0-1.006 0.451-1.006 1.006s0.451 1.006 1.006 1.006l2.885-0.001c1.266-0.035 2.281-1.073 2.281-2.347 0-1.297-1.051-2.348-2.348-2.348h-1.811c-0.111 0-0.201-0.090-0.201-0.201s0.090-0.201 0.201-0.201h3.153c0.556 0 1.006-0.451 1.006-1.006s-0.451-1.006-1.006-1.006z"></path>
<path fill="#000" style="fill: var(--color3, #000)" d="M4.495 19.857v0.201h0.201v-0.201h-0.201zM4.495 19.857l-0.006-0.201-0.196 0.006v0.196h0.201zM2.818 12.948h2.952v-0.403h-2.952v0.403zM0.805 14.96c0-1.112 0.901-2.013 2.013-2.013v-0.403c-1.334 0-2.415 1.081-2.415 2.415h0.403zM2.818 16.973c-1.111 0-2.013-0.901-2.013-2.013h-0.403c0 1.334 1.081 2.415 2.415 2.415v-0.403zM3.556 16.973h-0.738v0.403h0.738v-0.403zM4.428 16.973h-0.872v0.403h0.872v-0.403zM4.964 17.509c0-0.296-0.24-0.537-0.537-0.537v0.403c0.074 0 0.134 0.060 0.134 0.134h0.403zM4.428 18.046c0.296 0 0.537-0.24 0.537-0.537h-0.403c0 0.074-0.060 0.134-0.134 0.134v0.403zM2.103 18.046h2.324v-0.403h-2.324v0.403zM1.61 18.046h0.493v-0.403h-0.493v0.403zM0.805 18.851c0-0.445 0.36-0.805 0.805-0.805v-0.403c-0.667 0-1.208 0.541-1.208 1.208h0.403zM1.61 19.656c-0.445 0-0.805-0.36-0.805-0.805h-0.403c0 0.667 0.541 1.208 1.208 1.208v-0.403zM4.428 19.656h-2.818v0.403h2.818v-0.403zM4.495 19.656h-0.067v0.403h0.067v-0.403zM4.293 19.857v0.001h0.403v-0.001h-0.403zM6.574 17.509c0 1.165-0.928 2.113-2.085 2.146l0.011 0.402c1.374-0.039 2.477-1.165 2.477-2.548h-0.403zM4.428 15.363c1.186 0 2.147 0.961 2.147 2.147h0.403c0-1.408-1.141-2.549-2.549-2.549v0.403zM2.616 15.363h1.811v-0.403h-1.811v0.403zM2.214 14.96c0 0.222 0.18 0.403 0.403 0.403v-0.403h-0.403zM2.616 14.558c-0.222 0-0.403 0.18-0.403 0.403h0.403v-0.403zM5.769 14.558h-3.153v0.403h3.153v-0.403zM6.574 13.753c0 0.445-0.36 0.805-0.805 0.805v0.403c0.667 0 1.208-0.541 1.208-1.208h-0.403zM5.769 12.948c0.445 0 0.805 0.36 0.805 0.805h0.403c0-0.667-0.541-1.208-1.208-1.208v0.403z"></path>
</symbol>
  </defs>
</svg>