<!-- Generated by IcoMoon.io -->
<svg version="1.1" xmlns="http://www.w3.org/2000/svg" width="233" height="64" viewBox="0 0 233 64">
<title>logo-sword</title>
<path fill="#fff" d="M0 0h233.057v64h-233.057v-64z"></path>
<path fill="#ffb003" d="M85.937 31.497c0-16.284-13.201-29.484-29.484-29.484s-29.484 13.201-29.484 29.484c0 16.284 13.201 29.484 29.484 29.484s29.484-13.2 29.484-29.484zM80.503 30.994c0 13.227-10.723 23.95-23.95 23.95s-23.95-10.723-23.95-23.95c0-13.227 10.723-23.95 23.95-23.95s23.95 10.723 23.95 23.95zM76.478 30.994c0-11.004-8.921-19.924-19.924-19.924s-19.924 8.921-19.924 19.924c0 11.004 8.921 19.925 19.924 19.925s19.924-8.921 19.924-19.924zM70.843 30.994c0 7.892-6.398 14.289-14.289 14.289s-14.289-6.398-14.289-14.289c0-7.892 6.398-14.289 14.289-14.289s14.289 6.398 14.289 14.289z"></path>
<path fill="#000" d="M56.453 61.585c16.617 0 30.088-13.471 30.088-30.088h-1.208c0 15.95-12.93 28.881-28.88 28.881v1.208zM26.365 31.497c0 16.617 13.471 30.088 30.088 30.088v-1.208c-15.95 0-28.881-12.93-28.881-28.881h-1.208zM56.453 1.409c-16.617 0-30.088 13.471-30.088 30.088h1.208c0-15.95 12.93-28.881 28.881-28.881v-1.208zM86.541 31.497c0-16.617-13.471-30.088-30.088-30.088v1.208c15.95 0 28.881 12.93 28.881 28.881h1.208zM56.553 55.547c13.561 0 24.553-10.993 24.553-24.553h-1.208c0 12.894-10.452 23.346-23.346 23.346v1.208zM32 30.994c0 13.561 10.993 24.553 24.553 24.553v-1.208c-12.894 0-23.346-10.452-23.346-23.346h-1.208zM56.553 6.44c-13.561 0-24.553 10.993-24.553 24.553h1.208c0-12.894 10.452-23.346 23.346-23.346v-1.208zM81.107 30.994c0-13.56-10.993-24.553-24.553-24.553v1.208c12.894 0 23.346 10.452 23.346 23.346h1.208zM56.553 51.522c11.337 0 20.528-9.191 20.528-20.528h-1.208c0 10.67-8.65 19.321-19.321 19.321v1.208zM36.025 30.994c0 11.337 9.191 20.528 20.528 20.528v-1.208c-10.671 0-19.321-8.65-19.321-19.321h-1.208zM56.553 10.465c-11.337 0-20.528 9.191-20.528 20.528h1.208c0-10.671 8.65-19.321 19.321-19.321v-1.208zM77.082 30.994c0-11.337-9.191-20.528-20.528-20.528v1.208c10.671 0 19.321 8.65 19.321 19.321h1.208zM56.553 45.887c8.225 0 14.893-6.668 14.893-14.893h-1.208c0 7.558-6.127 13.686-13.686 13.686v1.208zM41.66 30.994c0 8.225 6.668 14.893 14.893 14.893v-1.208c-7.558 0-13.686-6.127-13.686-13.686h-1.208zM56.553 16.101c-8.225 0-14.893 6.668-14.893 14.893h1.208c0-7.558 6.127-13.686 13.686-13.686v-1.208zM71.447 30.994c0-8.225-6.668-14.893-14.893-14.893v1.208c7.558 0 13.686 6.127 13.686 13.686h1.208z"></path>
<path fill="#738585" d="M8.654 20.528c-3.668 0-6.641 2.974-6.641 6.642s2.974 6.642 6.641 6.642h4.83c0.556 0 1.006 0.451 1.006 1.006s-0.451 1.006-1.006 1.006h-8.453c-1.667 0-3.019 1.352-3.019 3.019s1.352 3.019 3.019 3.019l8.654-0.003c3.797-0.106 6.843-3.218 6.843-7.041 0-3.89-3.154-7.044-7.044-7.044h-5.434c-0.333 0-0.604-0.27-0.604-0.604s0.27-0.604 0.604-0.604h9.459c1.667 0 3.019-1.352 3.019-3.019s-1.352-3.019-3.019-3.019h-8.855zM23.346 23.547v15.296c0 1.667 1.352 3.019 3.019 3.019 0.793 0 1.514-0.306 2.052-0.805h0.003l5.492-5.492 5.495 5.492c0.539 0.499 1.26 0.805 2.052 0.805 1.667 0 3.019-1.352 3.019-3.019v-15.296c0-1.667-1.352-3.019-3.019-3.019s-3.019 1.352-3.019 3.019v8.007l-2.494-2.494c-0.538-0.538-1.229-0.831-1.934-0.878v-0.007c-0.034 0-0.067 0.001-0.101 0.002-0.034-0.001-0.067-0.002-0.101-0.002v0.007c-0.704 0.047-1.395 0.339-1.933 0.878l-2.494 2.494v-8.007c0-1.667-1.352-3.019-3.019-3.019s-3.019 1.352-3.019 3.019zM66.818 30.994c0 5.669-4.595 10.264-10.264 10.264s-10.264-4.595-10.264-10.264c0-5.669 4.595-10.264 10.264-10.264s10.264 4.595 10.264 10.264zM60.757 30.603c0 2.321-1.882 4.204-4.203 4.204s-4.203-1.882-4.203-4.203c0-2.322 1.882-4.203 4.203-4.203s4.203 1.882 4.203 4.203zM113.711 41.862c1.667 0 3.019-1.352 3.019-3.019s-1.352-3.019-3.019-3.019c-1.667 0-3.019 1.352-3.019 3.019s1.352 3.019 3.019 3.019zM79.094 20.528h-7.447c-1.667 0-3.019 1.352-3.019 3.019v15.296c0 1.667 1.352 3.019 3.019 3.019s3.019-1.352 3.019-3.019v-12.075h6.029c0.367 0.086 0.64 0.415 0.64 0.807 0 0.386-0.264 0.71-0.621 0.803h-2.828c-1.667 0-3.019 1.352-3.019 3.019 0 0.684 0.227 1.314 0.61 1.821l-0 0 0.006 0.006c0.079 0.104 0.165 0.203 0.257 0.296l6.339 7.292c1.094 1.258 3.001 1.392 4.259 0.298s1.392-3.001 0.298-4.259l-2.872-3.303c2.135-1.184 3.581-3.461 3.581-6.076 0-3.801-3.055-6.889-6.843-6.943h-1.409zM94.994 20.528h5.031c5.891 0 10.667 4.776 10.667 10.667s-4.776 10.667-10.667 10.667h-8.654v-0.027c-1.477-0.197-2.616-1.462-2.616-2.992v-15.296c0-1.667 1.352-3.019 3.019-3.019h3.22zM100.025 35.421c2.334 0 4.226-1.892 4.226-4.226s-1.892-4.226-4.226-4.226h-5.233v8.453h5.233zM152.151 26.969h4.226v-0.025c1.589-0.198 2.818-1.553 2.818-3.195s-1.229-2.997-2.818-3.195v-0.025h-12.679c-1.667 0-3.019 1.352-3.019 3.019v15.296c0 1.531 1.139 2.795 2.616 2.992v0.027l12.881-0.006c1.685-0.104 3.019-1.503 3.019-3.214s-1.334-3.11-3.019-3.214v-0.006h-4.025v-0.005c-0.067 0.003-0.134 0.005-0.201 0.005h-5.233v-8.453h5.233c0.067 0 0.135 0.002 0.201 0.005v-0.005zM154.969 34.013h-4.629v-0.006c-1.685-0.104-3.019-1.503-3.019-3.214s1.334-3.11 3.019-3.214v-0.006h4.83v0.006c1.685 0.104 3.019 1.503 3.019 3.214s-1.334 3.11-3.019 3.214v0.006h-0.201zM187.17 38.843c0 1.667-1.352 3.019-3.019 3.019s-3.019-1.352-3.019-3.019c0-1.667 1.352-3.019 3.019-3.019s3.019 1.352 3.019 3.019zM176.704 20.528l-12.881 0.007c-1.573 0.103-2.818 1.413-2.818 3.012s1.244 2.909 2.818 3.012v0.007h3.421v12.447h0.007c0.103 1.591 1.413 2.849 3.012 2.849s2.909-1.258 3.012-2.849h0.007v-12.447h3.623v-0.007c1.573-0.103 2.818-1.413 2.818-3.012s-1.244-2.909-2.818-3.012v-0.007h-0.201zM123.371 20.528c0.87 0 1.654 0.368 2.205 0.957l0.005-0.004 7.652 8.803v-6.737c0-1.667 1.352-3.019 3.019-3.019s3.019 1.352 3.019 3.019v15.497h-0.007c-0.103 1.573-1.413 2.818-3.012 2.818-0.906 0-1.719-0.399-2.272-1.031l-0.006 0.005-7.184-8.761-0.399-0.459v7.429c0 1.667-1.352 3.019-3.019 3.019s-3.019-1.352-3.019-3.019v-15.497c0-1.667 1.352-3.019 3.019-3.019zM191.799 20.528c1.667 0 3.019 1.352 3.019 3.019v9.459c0 1.89 1.532 3.421 3.421 3.421s3.421-1.532 3.421-3.421v-9.459c0-1.667 1.352-3.019 3.019-3.019s3.019 1.352 3.019 3.019v9.459h-0.018c-0.312 4.943-4.42 8.855-9.441 8.855s-9.129-3.912-9.44-8.855h-0.019v-9.459c0-1.667 1.352-3.019 3.019-3.019zM219.774 20.528c1.232 0 2.29 0.737 2.759 1.794l7.406 14.855c0.316 0.478 0.501 1.050 0.501 1.666 0 1.667-1.352 3.019-3.019 3.019h-15.296c-1.666 0-3.019-1.352-3.019-3.019 0-0.616 0.185-1.188 0.501-1.666l7.406-14.855c0.469-1.057 1.528-1.794 2.759-1.794zM222.72 35.824l-2.946-5.908-2.946 5.908h5.893z"></path>
<path fill="#000" d="M13.686 41.859l-0.017-0.604-0.587 0.017v0.587h0.604zM13.686 41.862v0.604h0.604v-0.604h-0.604zM28.417 41.057v-0.604h-0.237l-0.174 0.161 0.411 0.443zM28.42 41.057v0.604h0.25l0.177-0.177-0.427-0.427zM33.912 35.565l0.427-0.427-0.427-0.427-0.427 0.427 0.427 0.427zM39.404 41.057l-0.427 0.427 0.177 0.177h0.25v-0.604zM39.407 41.057l0.411-0.443-0.174-0.161h-0.237v0.604zM38.44 31.555l-0.427 0.427 1.031 1.031v-1.457h-0.604zM35.946 29.060v0zM34.013 28.183h-0.604v0.565l0.564 0.037 0.040-0.603zM34.013 28.176h0.604v-0.604h-0.604v0.604zM33.912 28.178l-0.020 0.604 0.020 0.001 0.020-0.001-0.020-0.604zM33.811 28.176v-0.604h-0.604v0.604h0.604zM33.811 28.183l0.040 0.603 0.564-0.037v-0.565h-0.604zM31.878 29.060v0zM29.384 31.555h-0.604v1.458l1.031-1.031-0.427-0.427zM74.667 26.767v-0.604h-0.604v0.604h0.604zM80.696 26.767l0.137-0.588-0.068-0.016h-0.070v0.604zM80.714 28.377v0.604h0.077l0.074-0.019-0.151-0.585zM75.478 33.217l0.395 0.457 0.428-0.37-0.342-0.451-0.481 0.364zM75.478 33.217l-0.395-0.457-0.458 0.396 0.397 0.457 0.456-0.396zM75.484 33.224l0.48-0.366-0.012-0.016-0.013-0.015-0.456 0.396zM75.741 33.52l0.456-0.396-0.013-0.015-0.014-0.014-0.429 0.425zM82.080 40.812v0zM86.339 41.11v0zM86.637 36.85v0zM83.765 33.547l-0.293-0.528-0.652 0.361 0.489 0.563 0.456-0.396zM80.503 20.528l0.009-0.604-0.004-0h-0.004v0.604zM91.371 41.862h-0.604v0.604h0.604v-0.604zM91.371 41.835h0.604v-0.529l-0.524-0.070-0.080 0.599zM94.792 26.969v-0.604h-0.604v0.604h0.604zM94.792 35.421h-0.604v0.604h0.604v-0.604zM152.151 26.969v-0.604h-0.604v0.604h0.604zM156.377 26.969v0.604h0.604v-0.604h-0.604zM156.377 26.944l-0.075-0.599-0.529 0.066v0.533h0.604zM156.377 20.553h-0.604v0.533l0.529 0.066 0.075-0.599zM156.377 20.528h0.604v-0.604h-0.604v0.604zM143.296 41.835h0.604v-0.529l-0.524-0.070-0.080 0.599zM143.296 41.862h-0.604v0.604h0.604v-0.604zM156.176 41.862v0.604h0.604v-0.604h-0.604zM156.176 41.855l-0.037-0.603-0.567 0.035v0.568h0.604zM156.176 35.428h-0.604v0.568l0.567 0.035 0.037-0.603zM156.176 35.421h0.604v-0.604h-0.604v0.604zM152.151 35.421h-0.604v0.604h0.604v-0.604zM152.151 35.417h0.604v-0.633l-0.632 0.030 0.028 0.603zM146.717 35.421h-0.604v0.604h0.604v-0.604zM146.717 26.969v-0.604h-0.604v0.604h0.604zM152.151 26.973l-0.028 0.603 0.632 0.030v-0.633h-0.604zM150.34 34.013h-0.604v0.604h0.604v-0.604zM150.34 34.006h0.604v-0.568l-0.567-0.035-0.037 0.603zM150.34 27.579l0.037 0.603 0.567-0.035v-0.568h-0.604zM150.34 27.572v-0.604h-0.604v0.604h0.604zM155.17 27.572h0.604v-0.604h-0.604v0.604zM155.17 27.579h-0.604v0.568l0.567 0.035 0.037-0.603zM155.17 34.006l-0.037-0.603-0.567 0.035v0.568h0.604zM155.17 34.013v0.604h0.604v-0.604h-0.604zM163.824 20.528v-0.604h-0.604v0.604h0.604zM163.824 20.535l0.040 0.602 0.564-0.037v-0.565h-0.604zM163.824 26.559h0.604v-0.565l-0.564-0.037-0.040 0.602zM163.824 26.566h-0.604v0.604h0.604v-0.604zM167.245 26.566h0.604v-0.604h-0.604v0.604zM167.245 39.013h-0.604v0.604h0.604v-0.604zM167.252 39.013l0.602-0.039-0.037-0.565h-0.566v0.604zM173.276 39.013v-0.604h-0.566l-0.037 0.565 0.603 0.039zM173.283 39.013v0.604h0.604v-0.604h-0.604zM173.283 26.566v-0.604h-0.604v0.604h0.604zM176.906 26.566v0.604h0.604v-0.604h-0.604zM176.906 26.559l-0.040-0.602-0.564 0.037v0.565h0.604zM176.906 20.535h-0.604v0.565l0.564 0.037 0.040-0.602zM176.906 20.528h0.604v-0.604h-0.604v0.604zM125.576 21.485l-0.441 0.413 0.397 0.425 0.439-0.381-0.396-0.456zM125.581 21.481l0.456-0.396-0.396-0.455-0.456 0.395 0.396 0.456zM133.233 30.284l-0.456 0.396 1.059 1.219v-1.615h-0.604zM139.27 39.044v0.604h0.604v-0.604h-0.604zM139.264 39.044v-0.604h-0.565l-0.037 0.564 0.602 0.040zM133.98 40.831l0.454-0.398-0.385-0.44-0.452 0.37 0.383 0.467zM133.973 40.836l-0.467 0.383 0.383 0.467 0.467-0.382-0.383-0.467zM126.789 32.074l0.467-0.383-0.006-0.007-0.006-0.006-0.456 0.396zM126.39 31.615l0.456-0.396-1.059-1.219v1.615h0.604zM194.818 33.006v0zM201.66 33.006v0zM201.66 23.547v0zM207.698 33.006v0.604h0.604v-0.604h-0.604zM207.68 33.006v-0.604h-0.568l-0.036 0.566 0.604 0.038zM188.799 33.006l0.603-0.038-0.036-0.566h-0.567v0.604zM188.78 33.006h-0.604v0.604h0.604v-0.604zM222.533 22.322l-0.551 0.245 0.006 0.012 0.006 0.012 0.539-0.269zM229.939 37.177l-0.539 0.27 0.016 0.033 0.020 0.031 0.503-0.334zM227.421 41.862v0zM212.126 41.862v0zM209.608 37.177l0.503 0.334 0.020-0.031 0.016-0.033-0.539-0.27zM217.014 22.322l0.539 0.269 0.006-0.012 0.006-0.012-0.551-0.245zM219.774 29.916l0.539-0.269-0.539-1.084-0.539 1.084 0.539 0.269zM222.72 35.824v0.604h0.974l-0.435-0.873-0.539 0.27zM216.827 35.824l-0.539-0.27-0.435 0.873h0.974v-0.604zM17.509 19.924h-8.855v1.208h8.855v-1.208zM21.132 23.547c0-2.001-1.622-3.623-3.623-3.623v1.208c1.334 0 2.415 1.081 2.415 2.415h1.208zM17.509 27.17c2.001 0 3.623-1.622 3.623-3.623h-1.208c0 1.334-1.081 2.415-2.415 2.415v1.208zM8.050 27.17h9.459v-1.208h-9.459v1.208zM8.050 27.17v-1.208c-0.667 0-1.208 0.541-1.208 1.208h1.208zM8.050 27.17h-1.208c0 0.667 0.541 1.208 1.208 1.208v-1.208zM13.484 27.17h-5.434v1.208h5.434v-1.208zM21.132 34.818c0-4.224-3.424-7.648-7.648-7.648v1.208c3.557 0 6.44 2.883 6.44 6.44h1.208zM13.702 42.462c4.123-0.116 7.43-3.494 7.43-7.645h-1.208c0 3.495-2.785 6.34-6.256 6.438l0.034 1.207zM14.289 41.862v-0.003h-1.208v0.003h1.208zM13.484 42.465h0.201v-1.208h-0.201v1.208zM5.031 42.465h8.453v-1.208h-8.453v1.208zM1.409 38.843c0 2.001 1.622 3.623 3.623 3.623v-1.208c-1.334 0-2.415-1.081-2.415-2.415h-1.208zM5.031 35.22c-2.001 0-3.623 1.622-3.623 3.623h1.208c0-1.334 1.081-2.415 2.415-2.415v-1.208zM6.512 35.22h-1.48v1.208h1.48v-1.208zM13.484 35.22h-6.973v1.208h6.973v-1.208zM13.887 34.818c0 0.222-0.18 0.403-0.402 0.403v1.208c0.889 0 1.61-0.721 1.61-1.61h-1.208zM13.484 34.415c0.222 0 0.402 0.18 0.402 0.403h1.208c0-0.889-0.721-1.61-1.61-1.61v1.208zM10.868 34.415h2.616v-1.208h-2.616v1.208zM8.654 34.415h2.214v-1.208h-2.214v1.208zM1.409 27.17c0 4.001 3.244 7.245 7.245 7.245v-1.208c-3.335 0-6.038-2.703-6.038-6.038h-1.208zM8.654 19.924c-4.002 0-7.245 3.244-7.245 7.245h1.208c0-3.335 2.703-6.038 6.038-6.038v-1.208zM23.95 38.843v-15.296h-1.208v15.296h1.208zM26.365 41.258c-1.334 0-2.415-1.081-2.415-2.415h-1.208c0 2.001 1.622 3.623 3.623 3.623v-1.208zM28.007 40.614c-0.431 0.4-1.008 0.644-1.642 0.644v1.208c0.951 0 1.817-0.367 2.463-0.966l-0.821-0.886zM28.42 40.453h-0.003v1.208h0.003v-1.208zM33.485 35.138l-5.492 5.492 0.854 0.854 5.491-5.492-0.854-0.854zM39.831 40.63l-5.492-5.492-0.854 0.854 5.492 5.492 0.854-0.854zM39.407 40.453h-0.003v1.208h0.003v-1.208zM41.459 41.258c-0.634 0-1.211-0.244-1.642-0.644l-0.821 0.886c0.646 0.599 1.512 0.966 2.463 0.966v-1.208zM43.874 38.843c0 1.334-1.081 2.415-2.415 2.415v1.208c2.001 0 3.623-1.622 3.623-3.623h-1.208zM43.874 23.547v15.296h1.208v-15.296h-1.208zM41.459 21.132c1.334 0 2.415 1.081 2.415 2.415h1.208c0-2.001-1.622-3.623-3.623-3.623v1.208zM39.044 23.547c0-1.334 1.081-2.415 2.415-2.415v-1.208c-2.001 0-3.623 1.622-3.623 3.623h1.208zM39.044 31.555v-8.007h-1.208v8.007h1.208zM35.519 29.487l2.494 2.494 0.854-0.854-2.494-2.494-0.854 0.854zM33.972 28.785c0.564 0.037 1.116 0.271 1.546 0.702l0.854-0.854c-0.646-0.646-1.476-0.997-2.32-1.053l-0.080 1.205zM33.409 28.176v0.007h1.208v-0.007h-1.208zM33.932 28.781c0.027-0.001 0.054-0.001 0.081-0.001v-1.208c-0.040 0-0.081 0.001-0.121 0.002l0.040 1.207zM33.811 28.78c0.027 0 0.054 0 0.081 0.001l0.040-1.207c-0.040-0.001-0.080-0.002-0.121-0.002v1.208zM34.415 28.183v-0.007h-1.208v0.007h1.208zM32.305 29.487c0.431-0.431 0.983-0.665 1.546-0.702l-0.080-1.205c-0.845 0.056-1.675 0.407-2.32 1.053l0.854 0.854zM29.811 31.982l2.494-2.494-0.854-0.854-2.494 2.494 0.854 0.854zM28.78 23.547v8.007h1.208v-8.007h-1.208zM26.365 21.132c1.334 0 2.415 1.081 2.415 2.415h1.208c0-2.001-1.622-3.623-3.623-3.623v1.208zM23.95 23.547c0-1.334 1.081-2.415 2.415-2.415v-1.208c-2.001 0-3.623 1.622-3.623 3.623h1.208zM56.553 41.862c6.002 0 10.868-4.866 10.868-10.868h-1.208c0 5.335-4.325 9.66-9.66 9.66v1.208zM45.686 30.994c0 6.002 4.866 10.868 10.868 10.868v-1.208c-5.335 0-9.66-4.325-9.66-9.66h-1.208zM56.553 20.126c-6.002 0-10.868 4.866-10.868 10.868h1.208c0-5.335 4.325-9.66 9.66-9.66v-1.208zM67.421 30.994c0-6.002-4.866-10.868-10.868-10.868v1.208c5.335 0 9.66 4.325 9.66 9.66h1.208zM56.553 35.41c2.655 0 4.807-2.152 4.807-4.807h-1.208c0 1.988-1.612 3.6-3.6 3.6v1.208zM51.746 30.603c0 2.655 2.152 4.807 4.807 4.807v-1.208c-1.988 0-3.6-1.612-3.6-3.6h-1.208zM56.553 25.795c-2.655 0-4.807 2.152-4.807 4.807h1.208c0-1.988 1.612-3.6 3.6-3.6v-1.208zM61.361 30.603c0-2.655-2.152-4.807-4.807-4.807v1.208c1.988 0 3.6 1.612 3.6 3.6h1.208zM116.126 38.843c0 1.334-1.081 2.415-2.415 2.415v1.208c2.001 0 3.623-1.622 3.623-3.623h-1.208zM113.711 36.428c1.334 0 2.415 1.081 2.415 2.415h1.208c0-2.001-1.622-3.623-3.623-3.623v1.208zM111.296 38.843c0-1.334 1.081-2.415 2.415-2.415v-1.208c-2.001 0-3.623 1.622-3.623 3.623h1.208zM113.711 41.258c-1.334 0-2.415-1.081-2.415-2.415h-1.208c0 2.001 1.622 3.623 3.623 3.623v-1.208zM71.648 21.132h7.447v-1.208h-7.447v1.208zM69.233 23.547c0-1.334 1.081-2.415 2.415-2.415v-1.208c-2.001 0-3.623 1.622-3.623 3.623h1.208zM69.233 38.843v-15.296h-1.208v15.296h1.208zM71.648 41.258c-1.334 0-2.415-1.081-2.415-2.415h-1.208c0 2.001 1.622 3.623 3.623 3.623v-1.208zM74.063 38.843c0 1.334-1.081 2.415-2.415 2.415v1.208c2.001 0 3.623-1.622 3.623-3.623h-1.208zM74.063 30.835v8.007h1.208v-8.007h-1.208zM74.063 26.767v4.068h1.208v-4.068h-1.208zM80.696 26.163h-6.029v1.208h6.029v-1.208zM81.939 27.575c0-0.679-0.472-1.247-1.106-1.395l-0.275 1.176c0.1 0.023 0.173 0.113 0.173 0.219h1.208zM80.865 28.962c0.617-0.16 1.074-0.72 1.074-1.387h-1.208c0 0.104-0.071 0.193-0.168 0.218l0.302 1.169zM78.104 28.981h2.61v-1.208h-2.61v1.208zM77.887 28.981h0.218v-1.208h-0.218v1.208zM75.472 31.396c0-1.334 1.081-2.415 2.415-2.415v-1.208c-2.001 0-3.623 1.622-3.623 3.623h1.208zM75.96 32.852c-0.306-0.405-0.488-0.909-0.488-1.456h-1.208c0 0.82 0.273 1.578 0.733 2.185l0.963-0.729zM75.873 33.674l0-0-0.79-0.913-0.001 0 0.79 0.913zM75.939 32.828l-0.006-0.006-0.912 0.792 0.006 0.006 0.912-0.792zM76.17 33.095c-0.074-0.074-0.142-0.154-0.206-0.237l-0.961 0.732c0.095 0.125 0.198 0.243 0.308 0.355l0.858-0.849zM82.535 40.416l-6.339-7.292-0.911 0.792 6.339 7.292 0.911-0.792zM85.943 40.654c-1.007 0.875-2.532 0.768-3.407-0.238l-0.911 0.792c1.313 1.51 3.601 1.67 5.111 0.357l-0.792-0.911zM86.181 37.247c0.875 1.007 0.768 2.532-0.238 3.407l0.792 0.911c1.51-1.313 1.67-3.601 0.357-5.111l-0.912 0.792zM83.309 33.943l2.871 3.303 0.912-0.792-2.872-3.303-0.911 0.792zM86.742 27.471c0 2.387-1.319 4.466-3.27 5.548l0.586 1.056c2.32-1.286 3.892-3.761 3.892-6.605h-1.208zM80.495 21.132c3.459 0.049 6.248 2.868 6.248 6.339h1.208c0-4.132-3.32-7.488-7.438-7.546l-0.017 1.207zM79.899 21.132h0.604v-1.208h-0.604v1.208zM79.094 21.132h0.805v-1.208h-0.805v1.208zM100.025 19.924h-5.031v1.208h5.031v-1.208zM111.296 31.195c0-6.224-5.046-11.27-11.27-11.27v1.208c5.558 0 10.063 4.505 10.063 10.063h1.208zM100.025 42.465c6.225 0 11.27-5.046 11.27-11.27h-1.208c0 5.558-4.505 10.063-10.063 10.063v1.208zM91.774 42.465h8.252v-1.208h-8.252v1.208zM91.371 42.465h0.403v-1.208h-0.403v1.208zM90.767 41.835v0.027h1.208v-0.027h-1.208zM88.151 38.843c0 1.837 1.367 3.355 3.14 3.591l0.159-1.197c-1.181-0.157-2.092-1.169-2.092-2.394h-1.208zM88.151 23.547v15.296h1.208v-15.296h-1.208zM91.774 19.924c-2.001 0-3.623 1.622-3.623 3.623h1.208c0-1.334 1.081-2.415 2.415-2.415v-1.208zM94.994 19.924h-3.22v1.208h3.22v-1.208zM103.648 31.195c0 2.001-1.622 3.623-3.623 3.623v1.208c2.668 0 4.83-2.163 4.83-4.83h-1.208zM100.025 27.572c2.001 0 3.623 1.622 3.623 3.623h1.208c0-2.668-2.162-4.83-4.83-4.83v1.208zM94.792 27.572h5.233v-1.208h-5.233v1.208zM95.396 30.835v-3.867h-1.208v3.867h1.208zM95.396 35.421v-4.586h-1.208v4.586h1.208zM100.025 34.818h-5.233v1.208h5.233v-1.208zM155.975 26.365h-3.824v1.208h3.824v-1.208zM156.377 26.365h-0.403v1.208h0.403v-1.208zM155.774 26.944v0.025h1.208v-0.025h-1.208zM158.591 23.748c0 1.334-0.999 2.435-2.288 2.596l0.149 1.198c1.887-0.235 3.347-1.844 3.347-3.794h-1.208zM156.303 21.152c1.29 0.161 2.288 1.262 2.288 2.596h1.208c0-1.95-1.46-3.559-3.347-3.794l-0.149 1.198zM155.774 20.528v0.025h1.208v-0.025h-1.208zM155.975 21.132h0.403v-1.208h-0.403v1.208zM151.95 21.132h4.025v-1.208h-4.025v1.208zM148.528 21.132h3.421v-1.208h-3.421v1.208zM146.918 21.132h1.61v-1.208h-1.61v1.208zM143.698 21.132h3.22v-1.208h-3.22v1.208zM141.283 23.547c0-1.334 1.081-2.415 2.415-2.415v-1.208c-2.001 0-3.623 1.622-3.623 3.623h1.208zM141.283 38.843v-15.296h-1.208v15.296h1.208zM143.375 41.236c-1.181-0.157-2.092-1.169-2.092-2.394h-1.208c0 1.837 1.367 3.355 3.14 3.591l0.159-1.197zM143.899 41.862v-0.027h-1.208v0.027h1.208zM143.698 41.258h-0.403v1.208h0.403v-1.208zM148.327 41.258h-4.629v1.208h4.629v-1.208zM151.95 41.258h-3.623v1.208h3.623v-1.208zM155.975 41.258h-4.025v1.208h4.025v-1.208zM156.176 41.258h-0.201v1.208h0.201v-1.208zM155.572 41.855v0.006h1.208v-0.006h-1.208zM158.591 38.642c0 1.39-1.084 2.527-2.452 2.611l0.074 1.205c2.001-0.124 3.585-1.785 3.585-3.817h-1.208zM156.139 36.030c1.368 0.084 2.452 1.221 2.452 2.611h1.208c0-2.032-1.584-3.693-3.585-3.817l-0.074 1.205zM155.572 35.421v0.006h1.208v-0.006h-1.208zM155.975 36.025h0.201v-1.208h-0.201v1.208zM152.151 36.025h3.824v-1.208h-3.824v1.208zM151.547 35.417v0.005h1.208v-0.005h-1.208zM151.95 36.025c0.077 0 0.153-0.002 0.229-0.005l-0.056-1.206c-0.057 0.003-0.115 0.004-0.173 0.004v1.208zM148.327 36.025h3.623v-1.208h-3.623v1.208zM146.717 36.025h1.61v-1.208h-1.61v1.208zM146.113 30.835v4.586h1.208v-4.586h-1.208zM146.113 26.969v3.867h1.208v-3.867h-1.208zM148.528 26.365h-1.811v1.208h1.811v-1.208zM151.95 26.365h-3.421v1.208h3.421v-1.208zM152.179 26.37c-0.076-0.004-0.153-0.005-0.23-0.005v1.208c0.058 0 0.116 0.001 0.173 0.004l0.057-1.206zM151.547 26.969v0.005h1.208v-0.005h-1.208zM150.541 34.616h4.428v-1.208h-4.428v1.208zM150.34 34.616h0.201v-1.208h-0.201v1.208zM149.736 34.006v0.006h1.208v-0.006h-1.208zM146.717 30.792c0 2.032 1.584 3.693 3.585 3.817l0.074-1.205c-1.368-0.084-2.452-1.221-2.452-2.611h-1.208zM150.302 26.976c-2.001 0.124-3.585 1.785-3.585 3.817h1.208c0-1.39 1.084-2.527 2.452-2.611l-0.074-1.205zM149.736 27.572v0.006h1.208v-0.006h-1.208zM150.541 26.969h-0.201v1.208h0.201v-1.208zM154.969 26.969h-4.428v1.208h4.428v-1.208zM155.17 26.969h-0.201v1.208h0.201v-1.208zM155.774 27.579v-0.006h-1.208v0.006h1.208zM158.792 30.792c0-2.032-1.584-3.693-3.585-3.817l-0.074 1.205c1.368 0.084 2.452 1.221 2.452 2.611h1.208zM155.207 34.609c2.001-0.124 3.585-1.785 3.585-3.817h-1.208c0 1.39-1.084 2.527-2.452 2.611l0.074 1.205zM155.774 34.013v-0.006h-1.208v0.006h1.208zM154.969 34.616h0.201v-1.208h-0.201v1.208zM184.151 42.465c2.001 0 3.623-1.622 3.623-3.623h-1.208c0 1.334-1.081 2.415-2.415 2.415v1.208zM180.528 38.843c0 2.001 1.622 3.623 3.623 3.623v-1.208c-1.334 0-2.415-1.081-2.415-2.415h-1.208zM184.151 35.22c-2.001 0-3.623 1.622-3.623 3.623h1.208c0-1.334 1.081-2.415 2.415-2.415v-1.208zM187.774 38.843c0-2.001-1.622-3.623-3.623-3.623v1.208c1.334 0 2.415 1.081 2.415 2.415h1.208zM170.264 21.132h6.44v-1.208h-6.44v1.208zM164.025 21.132h6.239v-1.208h-6.239v1.208zM163.824 21.132h0.201v-1.208h-0.201v1.208zM164.428 20.535v-0.007h-1.208v0.007h1.208zM161.61 23.547c0-1.279 0.995-2.327 2.254-2.41l-0.079-1.205c-1.889 0.124-3.382 1.695-3.382 3.615h1.208zM163.864 25.957c-1.258-0.083-2.254-1.13-2.254-2.41h-1.208c0 1.92 1.493 3.49 3.382 3.615l0.079-1.205zM164.428 26.566v-0.007h-1.208v0.007h1.208zM164.025 25.962h-0.201v1.208h0.201v-1.208zM167.245 25.962h-3.22v1.208h3.22v-1.208zM167.849 38.81v-12.243h-1.208v12.243h1.208zM167.849 39.013v-0.203h-1.208v0.203h1.208zM167.252 38.409h-0.007v1.208h0.007v-1.208zM170.264 41.258c-1.274 0-2.326-1.003-2.41-2.284l-1.205 0.078c0.124 1.901 1.689 3.413 3.615 3.413v-1.208zM172.674 38.974c-0.083 1.281-1.136 2.284-2.41 2.284v1.208c1.926 0 3.491-1.513 3.615-3.413l-1.205-0.078zM173.283 38.409h-0.007v1.208h0.007v-1.208zM172.679 38.81v0.203h1.208v-0.203h-1.208zM172.679 26.566v12.243h1.208v-12.243h-1.208zM176.704 25.962h-3.421v1.208h3.421v-1.208zM176.906 25.962h-0.201v1.208h0.201v-1.208zM176.302 26.559v0.007h1.208v-0.007h-1.208zM179.119 23.547c0 1.279-0.995 2.327-2.254 2.41l0.079 1.205c1.889-0.124 3.382-1.695 3.382-3.615h-1.208zM176.866 21.137c1.258 0.083 2.254 1.13 2.254 2.41h1.208c0-1.92-1.493-3.49-3.382-3.615l-0.079 1.205zM176.302 20.528v0.007h1.208v-0.007h-1.208zM176.704 21.132h0.201v-1.208h-0.201v1.208zM126.017 21.073c-0.66-0.706-1.602-1.148-2.646-1.148v1.208c0.696 0 1.322 0.294 1.764 0.765l0.882-0.825zM125.185 21.025l-0.005 0.004 0.792 0.912 0.005-0.004-0.792-0.912zM133.688 29.888l-7.652-8.803-0.911 0.792 7.652 8.803 0.911-0.792zM132.629 23.547v6.737h1.208v-6.737h-1.208zM136.252 19.924c-2.001 0-3.623 1.622-3.623 3.623h1.208c0-1.334 1.081-2.415 2.415-2.415v-1.208zM139.874 23.547c0-2.001-1.622-3.623-3.623-3.623v1.208c1.334 0 2.415 1.081 2.415 2.415h1.208zM139.874 38.843v-15.296h-1.208v15.296h1.208zM139.874 39.044v-0.201h-1.208v0.201h1.208zM139.264 39.648h0.007v-1.208h-0.007v1.208zM136.252 42.465c1.92 0 3.49-1.493 3.615-3.382l-1.205-0.079c-0.083 1.258-1.13 2.254-2.41 2.254v1.208zM133.525 41.228c0.663 0.757 1.639 1.237 2.726 1.237v-1.208c-0.725 0-1.374-0.318-1.818-0.825l-0.909 0.796zM134.356 41.303l0.006-0.005-0.765-0.934-0.006 0.005 0.765 0.934zM126.322 32.457l7.184 8.761 0.934-0.766-7.184-8.761-0.934 0.766zM125.934 32.011l0.399 0.459 0.911-0.792-0.399-0.459-0.911 0.792zM126.994 39.044v-7.429h-1.208v7.429h1.208zM123.371 42.667c2.001 0 3.623-1.622 3.623-3.623h-1.208c0 1.334-1.081 2.415-2.415 2.415v1.208zM119.748 39.044c0 2.001 1.622 3.623 3.623 3.623v-1.208c-1.334 0-2.415-1.081-2.415-2.415h-1.208zM119.748 23.547v15.497h1.208v-15.497h-1.208zM123.371 19.924c-2.001 0-3.623 1.622-3.623 3.623h1.208c0-1.334 1.081-2.415 2.415-2.415v-1.208zM195.421 23.547c0-2.001-1.622-3.623-3.623-3.623v1.208c1.334 0 2.415 1.081 2.415 2.415h1.208zM195.421 32.201v-8.654h-1.208v8.654h1.208zM195.421 33.006v-0.805h-1.208v0.805h1.208zM198.239 35.824c-1.556 0-2.818-1.261-2.818-2.818h-1.208c0 2.223 1.802 4.025 4.025 4.025v-1.208zM201.057 33.006c0 1.556-1.262 2.818-2.818 2.818v1.208c2.223 0 4.025-1.802 4.025-4.025h-1.208zM201.057 23.547v9.459h1.208v-9.459h-1.208zM204.679 19.924c-2 0-3.623 1.622-3.623 3.623h1.208c0-1.334 1.081-2.415 2.415-2.415v-1.208zM208.302 23.547c0-2.001-1.622-3.623-3.623-3.623v1.208c1.334 0 2.415 1.081 2.415 2.415h1.208zM208.302 33.006v-9.459h-1.208v9.459h1.208zM207.68 33.61h0.018v-1.208h-0.018v1.208zM198.239 42.465c5.341 0 9.711-4.162 10.043-9.421l-1.206-0.076c-0.292 4.627-4.136 8.29-8.837 8.29v1.208zM188.196 33.044c0.331 5.259 4.701 9.421 10.043 9.421v-1.208c-4.701 0-8.546-3.663-8.838-8.29l-1.205 0.076zM188.78 33.61h0.019v-1.208h-0.019v1.208zM188.176 23.547v9.459h1.208v-9.459h-1.208zM191.799 19.924c-2.001 0-3.623 1.622-3.623 3.623h1.208c0-1.334 1.081-2.415 2.415-2.415v-1.208zM223.086 22.077c-0.564-1.267-1.833-2.152-3.313-2.152v1.208c0.984 0 1.831 0.589 2.208 1.435l1.105-0.49zM230.481 36.908l-7.406-14.855-1.081 0.539 7.406 14.855 1.081-0.539zM231.044 38.843c0-0.738-0.221-1.426-0.602-1.999l-1.006 0.667c0.254 0.382 0.4 0.839 0.4 1.332h1.208zM227.421 42.465c2 0 3.623-1.622 3.623-3.623h-1.208c0 1.334-1.081 2.415-2.415 2.415v1.208zM212.126 42.465h15.296v-1.208h-15.296v1.208zM208.503 38.843c0 2.001 1.622 3.623 3.623 3.623v-1.208c-1.334 0-2.415-1.081-2.415-2.415h-1.208zM209.105 36.843c-0.38 0.573-0.602 1.261-0.602 1.999h1.208c0-0.493 0.147-0.951 0.4-1.332l-1.006-0.667zM216.473 22.053l-7.406 14.855 1.081 0.539 7.406-14.855-1.081-0.539zM219.774 19.924c-1.479 0-2.749 0.886-3.313 2.152l1.105 0.49c0.376-0.847 1.224-1.435 2.208-1.435v-1.208zM219.234 30.185l2.944 5.908 1.081-0.539-2.946-5.908-1.079 0.539zM217.369 36.093l2.944-5.908-1.079-0.539-2.946 5.908 1.081 0.539zM222.72 35.22h-5.893v1.208h5.893v-1.208z"></path>
</svg>
