<!-- Generated by IcoMoon.io -->
<svg version="1.1" xmlns="http://www.w3.org/2000/svg" width="196" height="128" viewBox="0 0 196 128">
<title>logo__icon</title>
<path fill="#f5f5f5" d="M0 0h196.924v128h-196.924v-128z"></path>
<path fill="#fff" d="M0 0h196.924v128h-196.924v-128z"></path>
<path fill="#ffb003" d="M75.692 50.384c0-12.448-10.092-22.54-22.54-22.54s-22.54 10.092-22.54 22.54c0 12.448 10.092 22.54 22.54 22.54s22.54-10.092 22.54-22.54zM71.54 50c0 10.112-8.196 18.308-18.308 18.308s-18.308-8.196-18.308-18.308c0-10.112 8.196-18.308 18.308-18.308s18.308 8.196 18.308 18.308zM68.46 50c0-8.412-6.82-15.232-15.232-15.232s-15.232 6.82-15.232 15.232c0 8.412 6.82 15.232 15.232 15.232s15.232-6.82 15.232-15.232zM64.152 50c0 6.032-4.892 10.924-10.924 10.924s-10.924-4.892-10.924-10.924c0-6.032 4.892-10.924 10.924-10.924s10.924 4.892 10.924 10.924z"></path>
<path fill="#000" d="M53.152 73.384c12.704 0 23-10.296 23-23h-0.924c0 12.192-9.884 22.076-22.076 22.076v0.924zM30.152 50.384c0 12.704 10.296 23 23 23v-0.924c-12.192 0-22.076-9.884-22.076-22.076h-0.924zM53.152 27.384c-12.704 0-23 10.296-23 23h0.924c0-12.192 9.884-22.076 22.076-22.076v-0.924zM76.152 50.384c0-12.704-10.296-23-23-23v0.924c12.192 0 22.076 9.884 22.076 22.076h0.924zM53.232 68.768c10.364 0 18.768-8.404 18.768-18.768h-0.924c0 9.856-7.992 17.848-17.848 17.848v0.924zM34.46 50c0 10.364 8.404 18.768 18.768 18.768v-0.924c-9.856 0-17.848-7.992-17.848-17.848h-0.924zM53.232 31.232c-10.364 0-18.768 8.404-18.768 18.768h0.924c0-9.856 7.992-17.848 17.848-17.848v-0.924zM72 50c0-10.364-8.404-18.768-18.768-18.768v0.924c9.856 0 17.848 7.992 17.848 17.848h0.924zM53.232 65.692c8.668 0 15.692-7.024 15.692-15.692h-0.924c0 8.156-6.612 14.768-14.768 14.768v0.924zM37.54 50c0 8.668 7.024 15.692 15.692 15.692v-0.924c-8.156 0-14.768-6.612-14.768-14.768h-0.924zM53.232 34.308c-8.668 0-15.692 7.024-15.692 15.692h0.924c0-8.156 6.612-14.768 14.768-14.768v-0.924zM68.924 50c0-8.668-7.024-15.692-15.692-15.692v0.924c8.156 0 14.768 6.612 14.768 14.768h0.924zM53.232 61.384c6.288 0 11.384-5.096 11.384-11.384h-0.924c0 5.776-4.684 10.46-10.46 10.46v0.924zM41.848 50c0 6.288 5.096 11.384 11.384 11.384v-0.924c-5.776 0-10.46-4.684-10.46-10.46h-0.924zM53.232 38.616c-6.288 0-11.384 5.096-11.384 11.384h0.924c0-5.776 4.684-10.46 10.46-10.46v-0.924zM64.616 50c0-6.288-5.096-11.384-11.384-11.384v0.924c5.776 0 10.46 4.684 10.46 10.46h0.924z"></path>
<path fill="#738585" d="M16.616 42c-2.804 0-5.076 2.272-5.076 5.076s2.272 5.076 5.076 5.076h3.692c0.424 0 0.768 0.344 0.768 0.768s-0.344 0.768-0.768 0.768h-6.46c-1.276 0-2.308 1.032-2.308 2.308s1.032 2.308 2.308 2.308l6.616-0.004c2.904-0.080 5.232-2.46 5.232-5.384 0-2.972-2.412-5.384-5.384-5.384h-4.152c-0.256 0-0.46-0.208-0.46-0.46s0.208-0.46 0.46-0.46h7.232c1.276 0 2.308-1.032 2.308-2.308s-1.032-2.308-2.308-2.308h-6.768zM27.848 44.308v11.692c0 1.276 1.032 2.308 2.308 2.308 0.604 0 1.156-0.232 1.568-0.616h0.004l4.2-4.2 4.2 4.2c0.412 0.38 0.964 0.616 1.568 0.616 1.276 0 2.308-1.032 2.308-2.308v-11.692c0-1.276-1.032-2.308-2.308-2.308s-2.308 1.032-2.308 2.308v6.12l-1.908-1.908c-0.412-0.412-0.94-0.636-1.48-0.672v-0.004c-0.024 0-0.052 0-0.076 0s-0.052 0-0.076 0v0.004c-0.54 0.036-1.068 0.26-1.48 0.672l-1.908 1.908v-6.12c0-1.276-1.032-2.308-2.308-2.308s-2.308 1.032-2.308 2.308zM61.076 50c0 4.332-3.512 7.848-7.848 7.848s-7.848-3.512-7.848-7.848c0-4.332 3.512-7.848 7.848-7.848s7.848 3.512 7.848 7.848zM56.444 49.7c0 1.776-1.44 3.212-3.212 3.212s-3.212-1.44-3.212-3.212c0-1.776 1.44-3.212 3.212-3.212s3.212 1.44 3.212 3.212zM96.924 58.308c1.276 0 2.308-1.032 2.308-2.308s-1.032-2.308-2.308-2.308c-1.276 0-2.308 1.032-2.308 2.308s1.032 2.308 2.308 2.308zM70.46 42h-5.692c-1.276 0-2.308 1.032-2.308 2.308v11.692c0 1.276 1.032 2.308 2.308 2.308s2.308-1.032 2.308-2.308v-9.232h4.608c0.28 0.064 0.488 0.316 0.488 0.616 0 0.296-0.2 0.544-0.476 0.612h-2.16c-1.276 0-2.308 1.032-2.308 2.308 0 0.524 0.172 1.004 0.468 1.392v0l0.004 0.004c0.060 0.080 0.128 0.156 0.196 0.228l4.844 5.576c0.836 0.96 2.292 1.064 3.256 0.228s1.064-2.292 0.228-3.256l-2.196-2.524c1.632-0.904 2.736-2.648 2.736-4.644 0-2.904-2.336-5.264-5.232-5.308h-1.076zM82.616 42h3.848c4.504 0 8.152 3.652 8.152 8.152s-3.652 8.152-8.152 8.152h-6.616v-0.020c-1.128-0.152-2-1.116-2-2.288v-11.692c0-1.276 1.032-2.308 2.308-2.308h2.46zM86.46 53.384c1.784 0 3.232-1.448 3.232-3.232s-1.448-3.232-3.232-3.232h-4v6.46h4zM126.308 46.924h3.232v-0.020c1.216-0.152 2.152-1.188 2.152-2.444s-0.94-2.292-2.152-2.444v-0.020h-9.692c-1.276 0-2.308 1.032-2.308 2.308v11.692c0 1.172 0.872 2.136 2 2.288v0.020l9.848-0.004c1.288-0.080 2.308-1.148 2.308-2.456s-1.020-2.376-2.308-2.456v-0.004h-3.076v-0.004c-0.052 0.004-0.104 0.004-0.152 0.004h-4v-6.46h4c0.052 0 0.104 0 0.152 0.004v-0.004zM128.46 52.308h-3.54v-0.004c-1.288-0.080-2.308-1.148-2.308-2.456s1.020-2.376 2.308-2.456v-0.004h3.692v0.004c1.288 0.080 2.308 1.148 2.308 2.456s-1.020 2.376-2.308 2.456v0.004h-0.152zM153.076 56c0 1.276-1.032 2.308-2.308 2.308s-2.308-1.032-2.308-2.308c0-1.276 1.032-2.308 2.308-2.308s2.308 1.032 2.308 2.308zM145.076 42l-9.848 0.004c-1.204 0.080-2.152 1.080-2.152 2.304s0.952 2.224 2.152 2.304v0.004h2.616v9.516h0.004c0.080 1.216 1.080 2.176 2.304 2.176s2.224-0.96 2.304-2.176h0.004v-9.516h2.768v-0.004c1.204-0.080 2.152-1.080 2.152-2.304s-0.952-2.224-2.152-2.304v-0.004h-0.152zM104.308 42c0.664 0 1.264 0.28 1.684 0.732l0.004-0.004 5.848 6.728v-5.148c0-1.276 1.032-2.308 2.308-2.308s2.308 1.032 2.308 2.308v11.848h-0.004c-0.080 1.204-1.080 2.152-2.304 2.152-0.692 0-1.312-0.304-1.736-0.788l-0.004 0.004-5.492-6.696-0.304-0.352v5.68c0 1.276-1.032 2.308-2.308 2.308s-2.308-1.032-2.308-2.308v-11.848c0-1.276 1.032-2.308 2.308-2.308zM156.616 42c1.272 0 2.308 1.032 2.308 2.308v7.232c0 1.444 1.172 2.616 2.616 2.616s2.616-1.172 2.616-2.616v-7.232c0-1.276 1.032-2.308 2.308-2.308s2.308 1.032 2.308 2.308v7.232h-0.012c-0.24 3.78-3.38 6.768-7.216 6.768s-6.98-2.992-7.216-6.768h-0.012v-7.232c0-1.276 1.032-2.308 2.308-2.308zM178 42c0.94 0 1.752 0.564 2.108 1.372l5.66 11.356c0.24 0.364 0.384 0.804 0.384 1.272 0 1.276-1.032 2.308-2.308 2.308h-11.692c-1.272 0-2.308-1.032-2.308-2.308 0-0.472 0.14-0.908 0.384-1.272l5.66-11.356c0.36-0.808 1.168-1.372 2.108-1.372zM180.252 53.692l-2.252-4.516-2.252 4.516h4.504z"></path>
<path fill="#000" d="M20.46 58.304l-0.012-0.46-0.448 0.012v0.448h0.46zM20.46 58.308v0.46h0.46v-0.46h-0.46zM31.724 57.692v-0.46h-0.18l-0.132 0.124 0.312 0.34zM31.724 57.692v0.46h0.192l0.136-0.136-0.328-0.328zM35.924 53.496l0.328-0.328-0.328-0.328-0.328 0.328 0.328 0.328zM40.12 57.692l-0.328 0.328 0.136 0.136h0.192v-0.46zM40.124 57.692l0.312-0.34-0.132-0.124h-0.18v0.46zM39.384 50.428l-0.328 0.328 0.788 0.788v-1.116h-0.46zM37.48 48.52v0zM36 47.852h-0.46v0.432l0.432 0.028 0.032-0.46zM36 47.848h0.46v-0.46h-0.46v0.46zM35.924 47.848l-0.016 0.46h0.032l-0.016-0.46zM35.848 47.848v-0.46h-0.46v0.46h0.46zM35.848 47.852l0.032 0.46 0.432-0.028v-0.432h-0.46zM34.368 48.52v0zM32.46 50.428h-0.46v1.116l0.788-0.788-0.328-0.328zM67.076 46.768v-0.46h-0.46v0.46h0.46zM71.684 46.768l0.104-0.448-0.052-0.012h-0.052v0.46zM71.7 48v0.46h0.060l0.056-0.016-0.116-0.448zM67.696 51.7l0.3 0.348 0.328-0.284-0.26-0.344-0.368 0.28zM67.696 51.7l-0.3-0.348-0.348 0.304 0.304 0.348 0.348-0.304zM67.7 51.704l0.368-0.28-0.016-0.024-0.348 0.304zM67.9 51.932l0.348-0.304-0.008-0.012-0.012-0.012-0.328 0.324zM72.744 57.504v0zM76 57.732v0zM76.228 54.476v0zM74.032 51.952l-0.224-0.404-0.5 0.276 0.372 0.428 0.348-0.304zM71.54 42l0.008-0.46h-0.008v0.46zM79.848 58.308h-0.46v0.46h0.46v-0.46zM79.848 58.288h0.46v-0.404l-0.4-0.052-0.060 0.456zM82.46 46.924v-0.46h-0.46v0.46h0.46zM82.46 53.384h-0.46v0.46h0.46v-0.46zM126.308 46.924v-0.46h-0.46v0.46h0.46zM129.54 46.924v0.46h0.46v-0.46h-0.46zM129.54 46.904l-0.056-0.456-0.404 0.052v0.408h0.46zM129.54 42.020h-0.46v0.408l0.404 0.052 0.056-0.456zM129.54 42h0.46v-0.46h-0.46v0.46zM119.54 58.288h0.46v-0.404l-0.4-0.052-0.060 0.456zM119.54 58.308h-0.46v0.46h0.46v-0.46zM129.384 58.308v0.46h0.46v-0.46h-0.46zM129.384 58.304l-0.028-0.46-0.432 0.028v0.432h0.46zM129.384 53.388h-0.46v0.432l0.432 0.028 0.028-0.46zM129.384 53.384h0.46v-0.46h-0.46v0.46zM126.308 53.384h-0.46v0.46h0.46v-0.46zM126.308 53.38h0.46v-0.484l-0.484 0.024 0.020 0.46zM122.152 53.384h-0.46v0.46h0.46v-0.46zM122.152 46.924v-0.46h-0.46v0.46h0.46zM126.308 46.928l-0.020 0.46 0.484 0.024v-0.484h-0.46zM124.924 52.308h-0.46v0.46h0.46v-0.46zM124.924 52.304h0.46v-0.432l-0.432-0.028-0.028 0.46zM124.924 47.388l0.028 0.46 0.432-0.028v-0.432h-0.46zM124.924 47.384v-0.46h-0.46v0.46h0.46zM128.616 47.384h0.46v-0.46h-0.46v0.46zM128.616 47.388h-0.46v0.432l0.432 0.028 0.028-0.46zM128.616 52.304l-0.028-0.46-0.432 0.028v0.432h0.46zM128.616 52.308v0.46h0.46v-0.46h-0.46zM135.232 42v-0.46h-0.46v0.46h0.46zM135.232 42.004l0.032 0.46 0.432-0.028v-0.432h-0.46zM135.232 46.612h0.46v-0.432l-0.432-0.028-0.032 0.46zM135.232 46.616h-0.46v0.46h0.46v-0.46zM137.848 46.616h0.46v-0.46h-0.46v0.46zM137.848 56.132h-0.46v0.46h0.46v-0.46zM137.852 56.132l0.46-0.032-0.028-0.432h-0.432v0.46zM142.456 56.132v-0.46h-0.432l-0.028 0.432 0.46 0.032zM142.46 56.132v0.46h0.46v-0.46h-0.46zM142.46 46.616v-0.46h-0.46v0.46h0.46zM145.232 46.616v0.46h0.46v-0.46h-0.46zM145.232 46.612l-0.032-0.46-0.432 0.028v0.432h0.46zM145.232 42.004h-0.46v0.432l0.432 0.028 0.032-0.46zM145.232 42h0.46v-0.46h-0.46v0.46zM105.992 42.732l-0.336 0.316 0.304 0.324 0.336-0.292-0.304-0.348zM105.996 42.728l0.348-0.304-0.304-0.348-0.348 0.304 0.304 0.348zM111.848 49.456l-0.348 0.304 0.808 0.932v-1.236h-0.46zM116.46 56.152v0.46h0.46v-0.46h-0.46zM116.456 56.152v-0.46h-0.432l-0.028 0.432 0.46 0.032zM112.416 57.52l0.348-0.304-0.296-0.336-0.344 0.284 0.292 0.356zM112.412 57.524l-0.356 0.292 0.292 0.356 0.356-0.292-0.292-0.356zM106.92 50.828l0.356-0.292-0.008-0.008-0.348 0.304zM106.616 50.476l0.348-0.304-0.808-0.932v1.236h0.46zM158.924 51.54v0zM164.152 51.54v0zM164.152 44.308v0zM168.768 51.54v0.46h0.46v-0.46h-0.46zM168.756 51.54v-0.46h-0.432l-0.028 0.432 0.46 0.028zM154.32 51.54l0.46-0.028-0.028-0.432h-0.432v0.46zM154.308 51.54h-0.46v0.46h0.46v-0.46zM180.108 43.372l-0.42 0.188 0.008 0.016 0.412-0.204zM185.772 54.728l-0.412 0.208 0.012 0.024 0.016 0.024 0.384-0.256zM183.848 58.308v0zM172.152 58.308v0zM170.228 54.728l0.384 0.256 0.016-0.024 0.012-0.024-0.412-0.208zM175.892 43.372l0.412 0.204 0.008-0.016-0.42-0.188zM178 49.176l0.412-0.204-0.412-0.828-0.412 0.828 0.412 0.204zM180.252 53.692v0.46h0.744l-0.332-0.668-0.412 0.208zM175.748 53.692l-0.412-0.208-0.332 0.668h0.744v-0.46zM23.384 41.54h-6.768v0.924h6.768v-0.924zM26.152 44.308c0-1.528-1.24-2.768-2.768-2.768v0.924c1.020 0 1.848 0.828 1.848 1.848h0.924zM23.384 47.076c1.528 0 2.768-1.24 2.768-2.768h-0.924c0 1.020-0.828 1.848-1.848 1.848v0.924zM16.152 47.076h7.232v-0.924h-7.232v0.924zM16.152 47.076v-0.924c-0.508 0-0.924 0.412-0.924 0.924h0.924zM16.152 47.076h-0.924c0 0.508 0.412 0.924 0.924 0.924v-0.924zM20.308 47.076h-4.152v0.924h4.152v-0.924zM26.152 52.924c0-3.228-2.616-5.848-5.848-5.848v0.924c2.72 0 4.924 2.204 4.924 4.924h0.924zM20.476 58.768c3.152-0.088 5.68-2.672 5.68-5.844h-0.924c0 2.672-2.128 4.848-4.784 4.92l0.024 0.924zM20.924 58.308v-0.004h-0.924v0.004h0.924zM20.308 58.768h0.152v-0.924h-0.152v0.924zM13.848 58.768h6.46v-0.924h-6.46v0.924zM11.076 56c0 1.528 1.24 2.768 2.768 2.768v-0.924c-1.020 0-1.848-0.828-1.848-1.848h-0.924zM13.848 53.232c-1.528 0-2.768 1.24-2.768 2.768h0.924c0-1.020 0.828-1.848 1.848-1.848v-0.924zM14.976 53.232h-1.132v0.924h1.132v-0.924zM20.308 53.232h-5.332v0.924h5.332v-0.924zM20.616 52.924c0 0.172-0.136 0.308-0.308 0.308v0.924c0.68 0 1.232-0.552 1.232-1.232h-0.924zM20.308 52.616c0.172 0 0.308 0.136 0.308 0.308h0.924c0-0.68-0.552-1.232-1.232-1.232v0.924zM18.308 52.616h2v-0.924h-2v0.924zM16.616 52.616h1.692v-0.924h-1.692v0.924zM11.076 47.076c0 3.060 2.48 5.54 5.54 5.54v-0.924c-2.548 0-4.616-2.068-4.616-4.616h-0.924zM16.616 41.54c-3.060 0-5.54 2.48-5.54 5.54h0.924c0-2.548 2.068-4.616 4.616-4.616v-0.924zM28.308 56v-11.692h-0.924v11.692h0.924zM30.152 57.848c-1.020 0-1.848-0.828-1.848-1.848h-0.924c0 1.528 1.24 2.768 2.768 2.768v-0.924zM31.408 57.352c-0.328 0.304-0.772 0.492-1.256 0.492v0.924c0.728 0 1.388-0.28 1.884-0.74l-0.628-0.676zM31.724 57.232h-0.004v0.924h0.004v-0.924zM35.596 53.168l-4.2 4.2 0.652 0.652 4.196-4.196-0.652-0.652zM40.448 57.364l-4.2-4.2-0.652 0.652 4.196 4.196 0.652-0.652zM40.124 57.232h-0.004v0.924h0.004v-0.924zM41.692 57.848c-0.484 0-0.924-0.188-1.256-0.492l-0.628 0.676c0.492 0.456 1.156 0.74 1.884 0.74v-0.924zM43.54 56c0 1.020-0.828 1.848-1.848 1.848v0.924c1.528 0 2.768-1.24 2.768-2.768h-0.924zM43.54 44.308v11.692h0.924v-11.692h-0.924zM41.692 42.46c1.020 0 1.848 0.828 1.848 1.848h0.924c0-1.528-1.24-2.768-2.768-2.768v0.924zM39.848 44.308c0-1.020 0.828-1.848 1.848-1.848v-0.924c-1.528 0-2.768 1.24-2.768 2.768h0.924zM39.848 50.428v-6.12h-0.924v6.12h0.924zM37.152 48.848l1.908 1.908 0.652-0.652-1.908-1.908-0.652 0.652zM35.968 48.312c0.432 0.028 0.852 0.208 1.184 0.536l0.652-0.652c-0.492-0.492-1.128-0.764-1.772-0.804l-0.060 0.92zM35.54 47.848v0.004h0.924v-0.004h-0.924zM35.94 48.308c0.020 0 0.040 0 0.060 0v-0.924c-0.032 0-0.060 0-0.092 0l0.032 0.924zM35.848 48.308c0.020 0 0.040 0 0.060 0l0.032-0.924c-0.032 0-0.060 0-0.092 0v0.924zM36.308 47.852v-0.004h-0.924v0.004h0.924zM34.696 48.848c0.328-0.328 0.752-0.508 1.184-0.536l-0.060-0.92c-0.644 0.044-1.28 0.312-1.772 0.804l0.652 0.652zM32.788 50.756l1.908-1.908-0.652-0.652-1.908 1.908 0.652 0.652zM32 44.308v6.12h0.924v-6.12h-0.924zM30.152 42.46c1.020 0 1.848 0.828 1.848 1.848h0.924c0-1.528-1.24-2.768-2.768-2.768v0.924zM28.308 44.308c0-1.020 0.828-1.848 1.848-1.848v-0.924c-1.528 0-2.768 1.24-2.768 2.768h0.924zM53.232 58.308c4.588 0 8.308-3.72 8.308-8.308h-0.924c0 4.080-3.308 7.384-7.384 7.384v0.924zM44.924 50c0 4.588 3.72 8.308 8.308 8.308v-0.924c-4.080 0-7.384-3.308-7.384-7.384h-0.924zM53.232 41.692c-4.588 0-8.308 3.72-8.308 8.308h0.924c0-4.080 3.308-7.384 7.384-7.384v-0.924zM61.54 50c0-4.588-3.72-8.308-8.308-8.308v0.924c4.080 0 7.384 3.308 7.384 7.384h0.924zM53.232 53.376c2.028 0 3.676-1.644 3.676-3.676h-0.924c0 1.52-1.232 2.752-2.752 2.752v0.924zM49.556 49.7c0 2.028 1.644 3.676 3.676 3.676v-0.924c-1.52 0-2.752-1.232-2.752-2.752h-0.924zM53.232 46.028c-2.028 0-3.676 1.644-3.676 3.676h0.924c0-1.52 1.232-2.752 2.752-2.752v-0.924zM56.904 49.7c0-2.028-1.644-3.676-3.676-3.676v0.924c1.52 0 2.752 1.232 2.752 2.752h0.924zM98.768 56c0 1.020-0.828 1.848-1.848 1.848v0.924c1.528 0 2.768-1.24 2.768-2.768h-0.924zM96.924 54.152c1.020 0 1.848 0.828 1.848 1.848h0.924c0-1.528-1.24-2.768-2.768-2.768v0.924zM95.076 56c0-1.020 0.828-1.848 1.848-1.848v-0.924c-1.528 0-2.768 1.24-2.768 2.768h0.924zM96.924 57.848c-1.020 0-1.848-0.828-1.848-1.848h-0.924c0 1.528 1.24 2.768 2.768 2.768v-0.924zM64.768 42.46h5.692v-0.924h-5.692v0.924zM62.924 44.308c0-1.020 0.828-1.848 1.848-1.848v-0.924c-1.528 0-2.768 1.24-2.768 2.768h0.924zM62.924 56v-11.692h-0.924v11.692h0.924zM64.768 57.848c-1.020 0-1.848-0.828-1.848-1.848h-0.924c0 1.528 1.24 2.768 2.768 2.768v-0.924zM66.616 56c0 1.020-0.828 1.848-1.848 1.848v0.924c1.528 0 2.768-1.24 2.768-2.768h-0.924zM66.616 49.88v6.12h0.924v-6.12h-0.924zM66.616 46.768v3.108h0.924v-3.108h-0.924zM71.684 46.308h-4.608v0.924h4.608v-0.924zM72.636 47.388c0-0.52-0.36-0.952-0.844-1.068l-0.212 0.9c0.076 0.016 0.132 0.088 0.132 0.168h0.924zM71.816 48.448c0.472-0.12 0.82-0.548 0.82-1.060h-0.924c0 0.080-0.056 0.148-0.128 0.168l0.232 0.892zM69.704 48.46h1.996v-0.924h-1.996v0.924zM69.54 48.46h0.168v-0.924h-0.168v0.924zM67.692 50.308c0-1.020 0.828-1.848 1.848-1.848v-0.924c-1.528 0-2.768 1.24-2.768 2.768h0.924zM68.064 51.42c-0.236-0.308-0.372-0.696-0.372-1.112h-0.924c0 0.628 0.208 1.208 0.56 1.672l0.736-0.556zM68 52.048v0 0zM68.048 51.4l-0.004-0.004-0.696 0.604 0.004 0.004 0.696-0.604zM68.228 51.608c-0.056-0.056-0.108-0.116-0.156-0.18l-0.736 0.56c0.072 0.096 0.152 0.188 0.236 0.272l0.656-0.648zM73.092 57.204l-4.844-5.576-0.696 0.604 4.844 5.576 0.696-0.604zM75.696 57.384c-0.768 0.668-1.936 0.588-2.604-0.184l-0.696 0.604c1.004 1.156 2.752 1.276 3.908 0.272l-0.604-0.696zM75.88 54.78c0.668 0.768 0.588 1.936-0.184 2.604l0.604 0.696c1.156-1.004 1.276-2.752 0.272-3.908l-0.696 0.604zM73.684 52.256l2.196 2.524 0.696-0.604-2.196-2.524-0.696 0.604zM76.308 47.308c0 1.824-1.008 3.416-2.5 4.24l0.448 0.808c1.772-0.984 2.976-2.876 2.976-5.048h-0.924zM71.532 42.46c2.644 0.036 4.776 2.192 4.776 4.844h0.924c0-3.16-2.536-5.724-5.684-5.768l-0.012 0.924zM71.076 42.46h0.46v-0.924h-0.46v0.924zM70.46 42.46h0.616v-0.924h-0.616v0.924zM86.46 41.54h-3.848v0.924h3.848v-0.924zM95.076 50.152c0-4.76-3.856-8.616-8.616-8.616v0.924c4.248 0 7.692 3.444 7.692 7.692h0.924zM86.46 58.768c4.76 0 8.616-3.856 8.616-8.616h-0.924c0 4.248-3.444 7.692-7.692 7.692v0.924zM80.152 58.768h6.308v-0.924h-6.308v0.924zM79.848 58.768h0.308v-0.924h-0.308v0.924zM79.384 58.288v0.020h0.924v-0.020h-0.924zM77.384 56c0 1.404 1.044 2.564 2.4 2.744l0.12-0.916c-0.904-0.12-1.6-0.892-1.6-1.828h-0.924zM77.384 44.308v11.692h0.924v-11.692h-0.924zM80.152 41.54c-1.528 0-2.768 1.24-2.768 2.768h0.924c0-1.020 0.828-1.848 1.848-1.848v-0.924zM82.616 41.54h-2.46v0.924h2.46v-0.924zM89.232 50.152c0 1.528-1.24 2.768-2.768 2.768v0.924c2.040 0 3.692-1.652 3.692-3.692h-0.924zM86.46 47.384c1.528 0 2.768 1.24 2.768 2.768h0.924c0-2.040-1.652-3.692-3.692-3.692v0.924zM82.46 47.384h4v-0.924h-4v0.924zM82.924 49.88v-2.956h-0.924v2.956h0.924zM82.924 53.384v-3.504h-0.924v3.504h0.924zM86.46 52.924h-4v0.924h4v-0.924zM129.232 46.46h-2.924v0.924h2.924v-0.924zM129.54 46.46h-0.308v0.924h0.308v-0.924zM129.076 46.904v0.020h0.924v-0.020h-0.924zM131.232 44.46c0 1.020-0.764 1.86-1.748 1.984l0.116 0.916c1.444-0.18 2.56-1.408 2.56-2.9h-0.924zM129.48 42.476c0.984 0.124 1.748 0.964 1.748 1.984h0.924c0-1.492-1.116-2.72-2.56-2.9l-0.116 0.916zM129.076 42v0.020h0.924v-0.020h-0.924zM129.232 42.46h0.308v-0.924h-0.308v0.924zM126.152 42.46h3.076v-0.924h-3.076v0.924zM123.54 42.46h2.616v-0.924h-2.616v0.924zM122.308 42.46h1.232v-0.924h-1.232v0.924zM119.848 42.46h2.46v-0.924h-2.46v0.924zM118 44.308c0-1.020 0.828-1.848 1.848-1.848v-0.924c-1.528 0-2.768 1.24-2.768 2.768h0.924zM118 56v-11.692h-0.924v11.692h0.924zM119.6 57.828c-0.904-0.12-1.6-0.892-1.6-1.828h-0.924c0 1.404 1.044 2.564 2.4 2.744l0.12-0.916zM120 58.308v-0.020h-0.924v0.020h0.924zM119.848 57.848h-0.308v0.924h0.308v-0.924zM123.384 57.848h-3.54v0.924h3.54v-0.924zM126.152 57.848h-2.768v0.924h2.768v-0.924zM129.232 57.848h-3.076v0.924h3.076v-0.924zM129.384 57.848h-0.152v0.924h0.152v-0.924zM128.924 58.304v0.004h0.924v-0.004h-0.924zM131.232 55.848c0 1.064-0.828 1.932-1.876 1.996l0.056 0.92c1.528-0.096 2.74-1.364 2.74-2.916h-0.924zM129.356 53.852c1.044 0.064 1.876 0.932 1.876 1.996h0.924c0-1.552-1.212-2.824-2.74-2.916l-0.056 0.92zM128.924 53.384v0.004h0.924v-0.004h-0.924zM129.232 53.848h0.152v-0.924h-0.152v0.924zM126.308 53.848h2.924v-0.924h-2.924v0.924zM125.848 53.38v0.004h0.924v-0.004h-0.924zM126.152 53.848c0.060 0 0.116 0 0.176-0.004l-0.044-0.92c-0.044 0.004-0.088 0.004-0.132 0.004v0.924zM123.384 53.848h2.768v-0.924h-2.768v0.924zM122.152 53.848h1.232v-0.924h-1.232v0.924zM121.692 49.88v3.504h0.924v-3.504h-0.924zM121.692 46.924v2.956h0.924v-2.956h-0.924zM123.54 46.46h-1.384v0.924h1.384v-0.924zM126.152 46.46h-2.616v0.924h2.616v-0.924zM126.328 46.464c-0.060-0.004-0.116-0.004-0.176-0.004v0.924c0.044 0 0.088 0 0.132 0.004l0.044-0.92zM125.848 46.924v0.004h0.924v-0.004h-0.924zM125.076 52.768h3.384v-0.924h-3.384v0.924zM124.924 52.768h0.152v-0.924h-0.152v0.924zM124.46 52.304v0.004h0.924v-0.004h-0.924zM122.152 49.848c0 1.552 1.212 2.824 2.74 2.916l0.056-0.92c-1.048-0.064-1.876-0.932-1.876-1.996h-0.924zM124.896 46.928c-1.528 0.096-2.74 1.364-2.74 2.916h0.924c0-1.064 0.828-1.932 1.876-1.996l-0.056-0.92zM124.46 47.384v0.004h0.924v-0.004h-0.924zM125.076 46.924h-0.152v0.924h0.152v-0.924zM128.46 46.924h-3.384v0.924h3.384v-0.924zM128.616 46.924h-0.152v0.924h0.152v-0.924zM129.076 47.388v-0.004h-0.924v0.004h0.924zM131.384 49.848c0-1.552-1.212-2.824-2.74-2.916l-0.056 0.92c1.044 0.064 1.876 0.932 1.876 1.996h0.924zM128.644 52.764c1.528-0.096 2.74-1.364 2.74-2.916h-0.924c0 1.064-0.828 1.932-1.876 1.996l0.056 0.92zM129.076 52.308v-0.004h-0.924v0.004h0.924zM128.46 52.768h0.152v-0.924h-0.152v0.924zM150.768 58.768c1.528 0 2.768-1.24 2.768-2.768h-0.924c0 1.020-0.828 1.848-1.848 1.848v0.924zM148 56c0 1.528 1.24 2.768 2.768 2.768v-0.924c-1.020 0-1.848-0.828-1.848-1.848h-0.924zM150.768 53.232c-1.528 0-2.768 1.24-2.768 2.768h0.924c0-1.020 0.828-1.848 1.848-1.848v-0.924zM153.54 56c0-1.528-1.24-2.768-2.768-2.768v0.924c1.020 0 1.848 0.828 1.848 1.848h0.924zM140.152 42.46h4.924v-0.924h-4.924v0.924zM135.384 42.46h4.768v-0.924h-4.768v0.924zM135.232 42.46h0.152v-0.924h-0.152v0.924zM135.692 42.004v-0.004h-0.924v0.004h0.924zM133.54 44.308c0-0.98 0.76-1.78 1.724-1.844l-0.060-0.92c-1.444 0.096-2.584 1.296-2.584 2.764h0.924zM135.26 46.148c-0.96-0.064-1.724-0.864-1.724-1.844h-0.924c0 1.468 1.14 2.668 2.584 2.764l0.060-0.92zM135.692 46.616v-0.004h-0.924v0.004h0.924zM135.384 46.152h-0.152v0.924h0.152v-0.924zM137.848 46.152h-2.46v0.924h2.46v-0.924zM138.308 55.976v-9.36h-0.924v9.36h0.924zM138.308 56.132v-0.156h-0.924v0.156h0.924zM137.852 55.668h-0.004v0.924h0.004v-0.924zM140.152 57.848c-0.972 0-1.78-0.768-1.844-1.748l-0.92 0.060c0.096 1.452 1.292 2.608 2.764 2.608v-0.924zM141.996 56.1c-0.064 0.98-0.868 1.748-1.844 1.748v0.924c1.472 0 2.668-1.156 2.764-2.608l-0.92-0.060zM142.46 55.668h-0.004v0.924h0.004v-0.924zM142 55.976v0.156h0.924v-0.156h-0.924zM142 46.616v9.36h0.924v-9.36h-0.924zM145.076 46.152h-2.616v0.924h2.616v-0.924zM145.232 46.152h-0.152v0.924h0.152v-0.924zM144.768 46.612v0.004h0.924v-0.004h-0.924zM146.924 44.308c0 0.98-0.76 1.78-1.724 1.844l0.060 0.92c1.444-0.096 2.584-1.296 2.584-2.764h-0.924zM145.2 42.464c0.96 0.064 1.724 0.864 1.724 1.844h0.924c0-1.468-1.14-2.668-2.584-2.764l-0.060 0.92zM144.768 42v0.004h0.924v-0.004h-0.924zM145.076 42.46h0.152v-0.924h-0.152v0.924zM106.328 42.416c-0.504-0.54-1.224-0.876-2.024-0.876v0.924c0.532 0 1.012 0.224 1.348 0.584l0.676-0.632zM105.696 42.38l-0.004 0.004 0.604 0.696 0.004-0.004-0.604-0.696zM112.196 49.156l-5.848-6.728-0.696 0.604 5.848 6.728 0.696-0.604zM111.384 44.308v5.148h0.924v-5.148h-0.924zM114.152 41.54c-1.528 0-2.768 1.24-2.768 2.768h0.924c0-1.020 0.828-1.848 1.848-1.848v-0.924zM116.924 44.308c0-1.528-1.24-2.768-2.768-2.768v0.924c1.020 0 1.848 0.828 1.848 1.848h0.924zM116.924 56v-11.692h-0.924v11.692h0.924zM116.924 56.152v-0.152h-0.924v0.152h0.924zM116.456 56.616h0.004v-0.924h-0.004v0.924zM114.152 58.768c1.468 0 2.668-1.14 2.764-2.584l-0.92-0.060c-0.064 0.96-0.864 1.724-1.844 1.724v0.924zM112.068 57.824c0.508 0.58 1.252 0.944 2.084 0.944v-0.924c-0.556 0-1.052-0.244-1.388-0.632l-0.696 0.608zM112.704 57.88l0.004-0.004-0.584-0.716-0.004 0.004 0.584 0.716zM106.564 51.12l5.492 6.696 0.712-0.584-5.492-6.696-0.712 0.584zM106.268 50.776l0.304 0.352 0.696-0.604-0.304-0.352-0.696 0.604zM107.076 56.152v-5.68h-0.924v5.68h0.924zM104.308 58.924c1.528 0 2.768-1.24 2.768-2.768h-0.924c0 1.020-0.828 1.848-1.848 1.848v0.924zM101.54 56.152c0 1.528 1.24 2.768 2.768 2.768v-0.924c-1.020 0-1.848-0.828-1.848-1.848h-0.924zM101.54 44.308v11.848h0.924v-11.848h-0.924zM104.308 41.54c-1.528 0-2.768 1.24-2.768 2.768h0.924c0-1.020 0.828-1.848 1.848-1.848v-0.924zM159.384 44.308c0-1.528-1.24-2.768-2.768-2.768v0.924c1.020 0 1.848 0.828 1.848 1.848h0.924zM159.384 50.924v-6.616h-0.924v6.616h0.924zM159.384 51.54v-0.616h-0.924v0.616h0.924zM161.54 53.692c-1.188 0-2.152-0.964-2.152-2.152h-0.924c0 1.7 1.376 3.076 3.076 3.076v-0.924zM163.692 51.54c0 1.188-0.964 2.152-2.152 2.152v0.924c1.7 0 3.076-1.376 3.076-3.076h-0.924zM163.692 44.308v7.232h0.924v-7.232h-0.924zM166.46 41.54c-1.528 0-2.768 1.24-2.768 2.768h0.924c0-1.020 0.828-1.848 1.848-1.848v-0.924zM169.232 44.308c0-1.528-1.24-2.768-2.768-2.768v0.924c1.020 0 1.848 0.828 1.848 1.848h0.924zM169.232 51.54v-7.232h-0.924v7.232h0.924zM168.756 52h0.012v-0.924h-0.012v0.924zM161.54 58.768c4.084 0 7.424-3.18 7.676-7.2l-0.92-0.060c-0.224 3.536-3.16 6.336-6.756 6.336v0.924zM153.86 51.568c0.252 4.020 3.592 7.2 7.676 7.2v-0.924c-3.592 0-6.532-2.8-6.756-6.336l-0.92 0.060zM154.308 52h0.012v-0.924h-0.012v0.924zM153.848 44.308v7.232h0.924v-7.232h-0.924zM156.616 41.54c-1.528 0-2.768 1.24-2.768 2.768h0.924c0-1.020 0.828-1.848 1.848-1.848v-0.924zM180.532 43.184c-0.432-0.968-1.4-1.644-2.532-1.644v0.924c0.752 0 1.4 0.452 1.688 1.096l0.844-0.376zM186.184 54.52l-5.66-11.356-0.828 0.412 5.66 11.356 0.828-0.412zM186.616 56c0-0.564-0.168-1.092-0.46-1.528l-0.768 0.508c0.192 0.292 0.308 0.64 0.308 1.020h0.924zM183.848 58.768c1.528 0 2.768-1.24 2.768-2.768h-0.924c0 1.020-0.828 1.848-1.848 1.848v0.924zM172.152 58.768h11.692v-0.924h-11.692v0.924zM169.384 56c0 1.528 1.24 2.768 2.768 2.768v-0.924c-1.020 0-1.848-0.828-1.848-1.848h-0.924zM169.844 54.472c-0.292 0.44-0.46 0.964-0.46 1.528h0.924c0-0.376 0.112-0.728 0.308-1.020l-0.768-0.508zM175.476 43.164l-5.66 11.356 0.828 0.412 5.66-11.356-0.828-0.412zM178 41.54c-1.132 0-2.1 0.676-2.532 1.644l0.844 0.376c0.288-0.648 0.936-1.096 1.688-1.096v-0.924zM177.588 49.384l2.252 4.516 0.828-0.412-2.252-4.516-0.824 0.412zM176.16 53.9l2.252-4.516-0.824-0.412-2.252 4.516 0.828 0.412zM180.252 53.232h-4.504v0.924h4.504v-0.924z"></path>
</svg>
