<svg width="583" height="477" viewBox="0 0 583 477" fill="none" xmlns="http://www.w3.org/2000/svg">
<rect width="583" height="477" fill="#F5F5F5"/>
<mask id="path-1-outside-1_0_1" maskUnits="userSpaceOnUse" x="121.014" y="78.2628" width="320" height="320" fill="black">
<rect fill="white" x="121.014" y="78.2628" width="320" height="320"/>
<path fill-rule="evenodd" clip-rule="evenodd" d="M280.792 394.819C367.378 394.819 437.57 324.627 437.57 238.041C437.57 151.455 367.378 81.2628 280.792 81.2628C194.206 81.2628 124.014 151.455 124.014 238.041C124.014 324.627 194.206 394.819 280.792 394.819ZM280.792 350.478C342.889 350.478 393.229 300.138 393.229 238.041C393.229 175.944 342.889 125.604 280.792 125.604C218.695 125.604 168.355 175.944 168.355 238.041C168.355 300.138 218.695 350.478 280.792 350.478Z"/>
</mask>
<path fill-rule="evenodd" clip-rule="evenodd" d="M280.792 394.819C367.378 394.819 437.57 324.627 437.57 238.041C437.57 151.455 367.378 81.2628 280.792 81.2628C194.206 81.2628 124.014 151.455 124.014 238.041C124.014 324.627 194.206 394.819 280.792 394.819ZM280.792 350.478C342.889 350.478 393.229 300.138 393.229 238.041C393.229 175.944 342.889 125.604 280.792 125.604C218.695 125.604 168.355 175.944 168.355 238.041C168.355 300.138 218.695 350.478 280.792 350.478Z" fill="#FFD700"/>
<path d="M434.57 238.041C434.57 322.97 365.721 391.819 280.792 391.819V397.819C369.035 397.819 440.57 326.284 440.57 238.041H434.57ZM280.792 84.2628C365.721 84.2628 434.57 153.112 434.57 238.041H440.57C440.57 149.798 369.035 78.2628 280.792 78.2628V84.2628ZM127.014 238.041C127.014 153.112 195.862 84.2628 280.792 84.2628V78.2628C192.549 78.2628 121.014 149.798 121.014 238.041H127.014ZM280.792 391.819C195.862 391.819 127.014 322.97 127.014 238.041H121.014C121.014 326.284 192.549 397.819 280.792 397.819V391.819ZM390.229 238.041C390.229 298.481 341.232 347.478 280.792 347.478V353.478C344.546 353.478 396.229 301.795 396.229 238.041H390.229ZM280.792 128.604C341.232 128.604 390.229 177.601 390.229 238.041H396.229C396.229 174.287 344.546 122.604 280.792 122.604V128.604ZM171.355 238.041C171.355 177.601 220.352 128.604 280.792 128.604V122.604C217.038 122.604 165.355 174.287 165.355 238.041H171.355ZM280.792 347.478C220.352 347.478 171.355 298.481 171.355 238.041H165.355C165.355 301.795 217.038 353.478 280.792 353.478V347.478Z" fill="black" mask="url(#path-1-outside-1_0_1)"/>
<mask id="path-3-inside-2_0_1" fill="white">
<path fill-rule="evenodd" clip-rule="evenodd" d="M280 474C408.13 474 512 370.13 512 242C512 113.87 408.13 10 280 10C151.87 10 48 113.87 48 242C48 370.13 151.87 474 280 474ZM280.792 426.491C384.87 426.491 469.242 342.119 469.242 238.041C469.242 133.963 384.87 49.5904 280.792 49.5904C176.713 49.5904 92.3413 133.963 92.3413 238.041C92.3413 342.119 176.713 426.491 280.792 426.491Z"/>
</mask>
<path fill-rule="evenodd" clip-rule="evenodd" d="M280 474C408.13 474 512 370.13 512 242C512 113.87 408.13 10 280 10C151.87 10 48 113.87 48 242C48 370.13 151.87 474 280 474ZM280.792 426.491C384.87 426.491 469.242 342.119 469.242 238.041C469.242 133.963 384.87 49.5904 280.792 49.5904C176.713 49.5904 92.3413 133.963 92.3413 238.041C92.3413 342.119 176.713 426.491 280.792 426.491Z" fill="#FFD700"/>
<path d="M509 242C509 368.473 406.473 471 280 471V477C409.787 477 515 371.787 515 242H509ZM280 13C406.473 13 509 115.527 509 242H515C515 112.213 409.787 7 280 7V13ZM51 242C51 115.527 153.527 13 280 13V7C150.213 7 45 112.213 45 242H51ZM280 471C153.527 471 51 368.473 51 242H45C45 371.787 150.213 477 280 477V471ZM466.242 238.041C466.242 340.462 383.213 423.491 280.792 423.491V429.491C386.527 429.491 472.242 343.776 472.242 238.041H466.242ZM280.792 52.5904C383.213 52.5904 466.242 135.619 466.242 238.041H472.242C472.242 132.306 386.527 46.5904 280.792 46.5904V52.5904ZM95.3413 238.041C95.3413 135.619 178.37 52.5904 280.792 52.5904V46.5904C175.057 46.5904 89.3413 132.306 89.3413 238.041H95.3413ZM280.792 423.491C178.37 423.491 95.3413 340.462 95.3413 238.041H89.3413C89.3413 343.776 175.057 429.491 280.792 429.491V423.491Z" fill="black" mask="url(#path-3-inside-2_0_1)"/>
<circle cx="564" cy="281" r="13.5" fill="#808080" stroke="black" stroke-width="3"/>
<mask id="path-6-inside-3_0_1" fill="white">
<path fill-rule="evenodd" clip-rule="evenodd" d="M115 205V281C115 289.284 121.716 296 130 296C133.938 296 137.522 294.482 140.198 292H140.213L167.5 264.713L194.787 292H194.802C197.478 294.482 201.062 296 205 296C213.284 296 220 289.284 220 281V205C220 196.716 213.284 190 205 190C196.716 190 190 196.716 190 205V244.787L177.607 232.393C174.932 229.719 171.499 228.266 168 228.033V228C167.833 228 167.667 228.003 167.5 228.008C167.333 228.003 167.167 228 167 228V228.033C163.501 228.266 160.068 229.719 157.393 232.393L145 244.787V205C145 196.716 138.284 190 130 190C121.716 190 115 196.716 115 205Z"/>
</mask>
<path fill-rule="evenodd" clip-rule="evenodd" d="M115 205V281C115 289.284 121.716 296 130 296C133.938 296 137.522 294.482 140.198 292H140.213L167.5 264.713L194.787 292H194.802C197.478 294.482 201.062 296 205 296C213.284 296 220 289.284 220 281V205C220 196.716 213.284 190 205 190C196.716 190 190 196.716 190 205V244.787L177.607 232.393C174.932 229.719 171.499 228.266 168 228.033V228C167.833 228 167.667 228.003 167.5 228.008C167.333 228.003 167.167 228 167 228V228.033C163.501 228.266 160.068 229.719 157.393 232.393L145 244.787V205C145 196.716 138.284 190 130 190C121.716 190 115 196.716 115 205Z" fill="#808080"/>
<path d="M140.198 292V289H139.021L138.158 289.8L140.198 292ZM140.213 292V295H141.456L142.335 294.121L140.213 292ZM167.5 264.713L169.621 262.592L167.5 260.471L165.379 262.592L167.5 264.713ZM194.787 292L192.665 294.121L193.544 295H194.787V292ZM194.802 292L196.842 289.8L195.979 289H194.802V292ZM190 244.787L187.879 246.908L193 252.029V244.787H190ZM168 228.033H165V230.841L167.801 231.027L168 228.033ZM168 228H171V225H168V228ZM167.5 228.008L167.401 231.007L167.5 231.01L167.599 231.007L167.5 228.008ZM167 228V225H164V228H167ZM167 228.033L167.199 231.027L170 230.841V228.033H167ZM145 244.787H142V252.029L147.121 246.908L145 244.787ZM118 281V205H112V281H118ZM130 293C123.373 293 118 287.627 118 281H112C112 290.941 120.059 299 130 299V293ZM138.158 289.8C136.015 291.789 133.152 293 130 293V299C134.724 299 139.029 297.176 142.238 294.2L138.158 289.8ZM140.213 289H140.198V295H140.213V289ZM165.379 262.592L138.092 289.879L142.335 294.121L169.621 266.835L165.379 262.592ZM165.379 266.835L192.665 294.121L196.908 289.879L169.621 262.592L165.379 266.835ZM194.787 295H194.802V289H194.787V295ZM192.762 294.2C195.971 297.176 200.276 299 205 299V293C201.848 293 198.985 291.789 196.842 289.8L192.762 294.2ZM205 299C214.941 299 223 290.941 223 281H217C217 287.627 211.627 293 205 293V299ZM223 281V205H217V281H223ZM223 205C223 195.059 214.941 187 205 187V193C211.627 193 217 198.373 217 205H223ZM205 187C195.059 187 187 195.059 187 205H193C193 198.373 198.373 193 205 193V187ZM187 205V244.787H193V205H187ZM192.121 242.665L179.728 230.272L175.485 234.515L187.879 246.908L192.121 242.665ZM179.728 230.272C176.52 227.064 172.395 225.318 168.199 225.04L167.801 231.027C170.603 231.213 173.344 232.374 175.485 234.515L179.728 230.272ZM165 228V228.033H171V228H165ZM167.599 231.007C167.733 231.002 167.866 231 168 231V225C167.8 225 167.6 225.003 167.401 225.01L167.599 231.007ZM167.599 225.01C167.4 225.003 167.2 225 167 225V231C167.134 231 167.267 231.002 167.401 231.007L167.599 225.01ZM164 228V228.033H170V228H164ZM159.515 234.515C161.656 232.374 164.397 231.213 167.199 231.027L166.801 225.04C162.605 225.318 158.48 227.064 155.272 230.272L159.515 234.515ZM147.121 246.908L159.515 234.515L155.272 230.272L142.879 242.665L147.121 246.908ZM142 205V244.787H148V205H142ZM130 193C136.627 193 142 198.373 142 205H148C148 195.059 139.941 187 130 187V193ZM118 205C118 198.373 123.373 193 130 193V187C120.059 187 112 195.059 112 205H118Z" fill="black" mask="url(#path-6-inside-3_0_1)"/>
<mask id="path-8-inside-4_0_1" fill="white">
<path fill-rule="evenodd" clip-rule="evenodd" d="M355 190H392H396H399C417.823 190.267 433 205.61 433 224.496C433 237.489 425.818 248.804 415.208 254.688L429.476 271.101C434.911 277.354 434.248 286.828 427.996 292.263C421.744 297.698 412.269 297.035 406.834 290.783L375.338 254.551C374.881 254.089 374.454 253.598 374.06 253.08L374.031 253.048L374.033 253.046C372.13 250.531 371 247.397 371 244C371 235.716 377.716 229 386 229H387.081H400.049C401.823 228.541 403.134 226.929 403.134 225.011C403.134 223.06 401.778 221.426 399.956 221H370V241.213V281C370 289.284 363.284 296 355 296C346.716 296 340 289.284 340 281V205C340 196.716 346.716 190 355 190Z"/>
</mask>
<path fill-rule="evenodd" clip-rule="evenodd" d="M355 190H392H396H399C417.823 190.267 433 205.61 433 224.496C433 237.489 425.818 248.804 415.208 254.688L429.476 271.101C434.911 277.354 434.248 286.828 427.996 292.263C421.744 297.698 412.269 297.035 406.834 290.783L375.338 254.551C374.881 254.089 374.454 253.598 374.06 253.08L374.031 253.048L374.033 253.046C372.13 250.531 371 247.397 371 244C371 235.716 377.716 229 386 229H387.081H400.049C401.823 228.541 403.134 226.929 403.134 225.011C403.134 223.06 401.778 221.426 399.956 221H370V241.213V281C370 289.284 363.284 296 355 296C346.716 296 340 289.284 340 281V205C340 196.716 346.716 190 355 190Z" fill="#808080"/>
<path d="M399 190L399.043 187L399.021 187H399V190ZM415.208 254.688L413.753 252.065L410.514 253.861L412.944 256.656L415.208 254.688ZM429.476 271.101L427.211 273.07L427.211 273.07L429.476 271.101ZM406.834 290.783L404.57 292.751L404.57 292.751L406.834 290.783ZM375.338 254.551L377.602 252.583L377.539 252.51L377.471 252.441L375.338 254.551ZM374.06 253.08L376.446 251.263L376.387 251.185L376.324 251.112L374.06 253.08ZM374.031 253.048L372.063 250.783L369.799 252.751L371.767 255.016L374.031 253.048ZM374.033 253.046L376.001 255.31L378.118 253.471L376.425 251.235L374.033 253.046ZM400.049 229V232H400.43L400.799 231.905L400.049 229ZM399.956 221L400.639 218.079L400.302 218H399.956V221ZM370 221V218H367V221H370ZM392 187H355V193H392V187ZM396 187H392V193H396V187ZM399 187H396V193H399V187ZM436 224.496C436 203.967 419.504 187.291 399.043 187L398.957 193C416.143 193.244 430 207.252 430 224.496H436ZM416.663 257.312C428.188 250.92 436 238.623 436 224.496H430C430 236.355 423.448 246.688 413.753 252.065L416.663 257.312ZM431.74 269.133L417.472 252.72L412.944 256.656L427.211 273.07L431.74 269.133ZM429.964 294.527C437.467 288.005 438.262 276.636 431.74 269.133L427.211 273.07C431.559 278.071 431.029 285.651 426.028 289.999L429.964 294.527ZM404.57 292.751C411.092 300.254 422.461 301.049 429.964 294.527L426.028 289.999C421.026 294.347 413.446 293.817 409.098 288.815L404.57 292.751ZM373.074 256.519L404.57 292.751L409.098 288.815L377.602 252.583L373.074 256.519ZM371.673 254.898C372.146 255.519 372.658 256.108 373.206 256.661L377.471 252.441C377.104 252.071 376.762 251.677 376.446 251.263L371.673 254.898ZM371.767 255.016L371.796 255.048L376.324 251.112L376.295 251.08L371.767 255.016ZM372.066 250.781L372.063 250.783L375.999 255.312L376.001 255.31L372.066 250.781ZM368 244C368 248.074 369.357 251.839 371.642 254.857L376.425 251.235C374.902 249.223 374 246.721 374 244H368ZM386 226C376.059 226 368 234.059 368 244H374C374 237.373 379.373 232 386 232V226ZM387.081 226H386V232H387.081V226ZM400.049 226H387.081V232H400.049V226ZM400.134 225.011C400.134 225.528 399.781 225.971 399.298 226.095L400.799 231.905C403.866 231.112 406.134 228.33 406.134 225.011H400.134ZM399.273 223.921C399.768 224.037 400.134 224.485 400.134 225.011H406.134C406.134 221.635 403.787 218.815 400.639 218.079L399.273 223.921ZM370 224H399.956V218H370V224ZM373 241.213V221H367V241.213H373ZM373 281V241.213H367V281H373ZM355 299C364.941 299 373 290.941 373 281H367C367 287.627 361.627 293 355 293V299ZM337 281C337 290.941 345.059 299 355 299V293C348.373 293 343 287.627 343 281H337ZM337 205V281H343V205H337ZM355 187C345.059 187 337 195.059 337 205H343C343 198.373 348.373 193 355 193V187Z" fill="black" mask="url(#path-8-inside-4_0_1)"/>
<mask id="path-10-inside-5_0_1" fill="white">
<path fill-rule="evenodd" clip-rule="evenodd" d="M471 190H496C525.271 190 549 213.729 549 243C549 272.271 525.271 296 496 296H455H453V295.868C445.661 294.89 440 288.606 440 281V205C440 196.716 446.716 190 455 190H471ZM496 264C507.598 264 517 254.598 517 243C517 231.402 507.598 222 496 222H470V241.213V264H496Z"/>
</mask>
<path fill-rule="evenodd" clip-rule="evenodd" d="M471 190H496C525.271 190 549 213.729 549 243C549 272.271 525.271 296 496 296H455H453V295.868C445.661 294.89 440 288.606 440 281V205C440 196.716 446.716 190 455 190H471ZM496 264C507.598 264 517 254.598 517 243C517 231.402 507.598 222 496 222H470V241.213V264H496Z" fill="#808080"/>
<path d="M453 296H450V299H453V296ZM453 295.868H456V293.241L453.396 292.894L453 295.868ZM470 222V219H467V222H470ZM470 264H467V267H470V264ZM496 187H471V193H496V187ZM496 193C523.614 193 546 215.386 546 243H552C552 212.072 526.928 187 496 187V193ZM546 243C546 270.614 523.614 293 496 293V299C526.928 299 552 273.928 552 243H546ZM455 299H496V293H455V299ZM453 299H455V293H453V299ZM450 295.868V296H456V295.868H450ZM437 281C437 290.13 443.794 297.668 452.604 298.842L453.396 292.894C447.528 292.112 443 287.083 443 281H437ZM437 205V281H443V205H437ZM455 187C445.059 187 437 195.059 437 205H443C443 198.373 448.373 193 455 193V187ZM471 187H455V193H471V187ZM496 267C509.255 267 520 256.255 520 243H514C514 252.941 505.941 261 496 261V267ZM520 243C520 229.745 509.255 219 496 219V225C505.941 225 514 233.059 514 243H520ZM470 225H496V219H470V225ZM473 241.213V222H467V241.213H473ZM473 264V241.213H467V264H473ZM496 261H470V267H496V261Z" fill="black" mask="url(#path-10-inside-5_0_1)"/>
<mask id="path-12-inside-6_0_1" fill="white">
<path fill-rule="evenodd" clip-rule="evenodd" d="M184 343H203H205V342.876C212.893 341.892 219 335.159 219 327C219 318.841 212.893 312.108 205 311.124V311H203H183H166H158H142C133.716 311 127 317.716 127 326V402C127 409.606 132.661 415.89 140 416.868V417H142H165H183H203H204V416.969C212.371 416.453 219 409.501 219 401C219 392.499 212.371 385.547 204 385.031V385H203H184V384.977C183.669 384.992 183.335 385 183 385H165H157V362.213V343H166H183C183.335 343 183.669 343.008 184 343.023V343Z"/>
</mask>
<path fill-rule="evenodd" clip-rule="evenodd" d="M184 343H203H205V342.876C212.893 341.892 219 335.159 219 327C219 318.841 212.893 312.108 205 311.124V311H203H183H166H158H142C133.716 311 127 317.716 127 326V402C127 409.606 132.661 415.89 140 416.868V417H142H165H183H203H204V416.969C212.371 416.453 219 409.501 219 401C219 392.499 212.371 385.547 204 385.031V385H203H184V384.977C183.669 384.992 183.335 385 183 385H165H157V362.213V343H166H183C183.335 343 183.669 343.008 184 343.023V343Z" fill="#808080"/>
<path d="M184 343V340H181V343H184ZM205 343V346H208V343H205ZM205 342.876L204.629 339.899L202 340.227V342.876H205ZM205 311.124H202V313.773L204.629 314.101L205 311.124ZM205 311H208V308H205V311ZM140 416.868H143V414.241L140.396 413.894L140 416.868ZM140 417H137V420H140V417ZM204 417V420H207V417H204ZM204 416.969L203.815 413.975L201 414.149V416.969H204ZM204 385.031H201V387.851L203.815 388.025L204 385.031ZM204 385H207V382H204V385ZM184 385H181V388H184V385ZM184 384.977H187V381.833L183.86 381.98L184 384.977ZM157 385H154V388H157V385ZM157 343V340H154V343H157ZM184 343.023L183.859 346.02L187 346.167V343.023H184ZM203 340H184V346H203V340ZM205 340H203V346H205V340ZM202 342.876V343H208V342.876H202ZM216 327C216 333.627 211.038 339.1 204.629 339.899L205.371 345.853C214.747 344.684 222 336.691 222 327H216ZM204.629 314.101C211.038 314.9 216 320.373 216 327H222C222 317.309 214.747 309.316 205.371 308.147L204.629 314.101ZM202 311V311.124H208V311H202ZM203 314H205V308H203V314ZM183 314H203V308H183V314ZM166 314H183V308H166V314ZM158 314H166V308H158V314ZM142 314H158V308H142V314ZM130 326C130 319.373 135.373 314 142 314V308C132.059 308 124 316.059 124 326H130ZM130 402V326H124V402H130ZM140.396 413.894C134.528 413.112 130 408.083 130 402H124C124 411.13 130.794 418.668 139.604 419.842L140.396 413.894ZM143 417V416.868H137V417H143ZM142 414H140V420H142V414ZM165 414H142V420H165V414ZM183 414H165V420H183V414ZM203 414H183V420H203V414ZM204 414H203V420H204V414ZM201 416.969V417H207V416.969H201ZM216 401C216 407.906 210.614 413.556 203.815 413.975L204.185 419.964C214.128 419.35 222 411.096 222 401H216ZM203.815 388.025C210.614 388.444 216 394.094 216 401H222C222 390.904 214.128 382.65 204.185 382.036L203.815 388.025ZM201 385V385.031H207V385H201ZM203 388H204V382H203V388ZM184 388H203V382H184V388ZM181 384.977V385H187V384.977H181ZM183 388C183.382 388 183.762 387.991 184.14 387.973L183.86 381.98C183.575 381.993 183.288 382 183 382V388ZM165 388H183V382H165V388ZM157 388H165V382H157V388ZM154 362.213V385H160V362.213H154ZM154 343V362.213H160V343H154ZM166 340H157V346H166V340ZM183 340H166V346H183V340ZM184.141 340.027C183.762 340.009 183.382 340 183 340V346C183.288 346 183.575 346.007 183.859 346.02L184.141 340.027ZM181 343V343.023H187V343H181Z" fill="black" mask="url(#path-12-inside-6_0_1)"/>
<mask id="path-14-inside-7_0_1" fill="white">
<path fill-rule="evenodd" clip-rule="evenodd" d="M192.556 376H175.444H174.667V375.977C168.156 375.59 163 370.376 163 364C163 357.624 168.156 352.41 174.667 352.023V352H175.444H192.556H193.333V352.023C199.844 352.41 205 357.624 205 364C205 370.376 199.844 375.59 193.333 375.977V376H192.556Z"/>
</mask>
<path fill-rule="evenodd" clip-rule="evenodd" d="M192.556 376H175.444H174.667V375.977C168.156 375.59 163 370.376 163 364C163 357.624 168.156 352.41 174.667 352.023V352H175.444H192.556H193.333V352.023C199.844 352.41 205 357.624 205 364C205 370.376 199.844 375.59 193.333 375.977V376H192.556Z" fill="#808080"/>
<path d="M174.667 376H171.667V379H174.667V376ZM174.667 375.977H177.667V373.15L174.845 372.982L174.667 375.977ZM174.667 352.023L174.845 355.018L177.667 354.85V352.023H174.667ZM174.667 352V349H171.667V352H174.667ZM193.333 352H196.333V349H193.333V352ZM193.333 352.023H190.333V354.85L193.155 355.018L193.333 352.023ZM193.333 375.977L193.155 372.982L190.333 373.15V375.977H193.333ZM193.333 376V379H196.333V376H193.333ZM192.556 373H175.444V379H192.556V373ZM175.444 373H174.667V379H175.444V373ZM177.667 376V375.977H171.667V376H177.667ZM174.845 372.982C169.815 372.683 166 368.685 166 364H160C160 372.066 166.498 378.496 174.489 378.972L174.845 372.982ZM166 364C166 359.315 169.815 355.317 174.845 355.018L174.489 349.028C166.498 349.504 160 355.934 160 364H166ZM177.667 352.023V352H171.667V352.023H177.667ZM174.667 355H175.444V349H174.667V355ZM175.444 355H192.556V349H175.444V355ZM192.556 355H193.333V349H192.556V355ZM190.333 352V352.023H196.333V352H190.333ZM193.155 355.018C198.185 355.317 202 359.315 202 364H208C208 355.934 201.502 349.503 193.511 349.028L193.155 355.018ZM202 364C202 368.685 198.185 372.683 193.155 372.982L193.511 378.972C201.502 378.497 208 372.066 208 364H202ZM190.333 375.977V376H196.333V375.977H190.333ZM193.333 373H192.556V379H193.333V373Z" fill="black" mask="url(#path-14-inside-7_0_1)"/>
<circle cx="343" cy="402" r="13.5" fill="#808080" stroke="black" stroke-width="3"/>
<mask id="path-17-inside-8_0_1" fill="white">
<path fill-rule="evenodd" clip-rule="evenodd" d="M274 311H306H307V311.033C314.818 311.547 321 318.052 321 326C321 333.948 314.818 340.453 307 340.967V341H306H289V401.835V402.846H288.967C288.453 410.75 281.948 417 274 417C266.052 417 259.547 410.75 259.033 402.846H259V401.835V341H243H242V340.967C234.182 340.453 228 333.948 228 326C228 318.052 234.182 311.547 242 311.033V311H243H274Z"/>
</mask>
<path fill-rule="evenodd" clip-rule="evenodd" d="M274 311H306H307V311.033C314.818 311.547 321 318.052 321 326C321 333.948 314.818 340.453 307 340.967V341H306H289V401.835V402.846H288.967C288.453 410.75 281.948 417 274 417C266.052 417 259.547 410.75 259.033 402.846H259V401.835V341H243H242V340.967C234.182 340.453 228 333.948 228 326C228 318.052 234.182 311.547 242 311.033V311H243H274Z" fill="#808080"/>
<path d="M307 311H310V308H307V311ZM307 311.033H304V313.842L306.803 314.026L307 311.033ZM307 340.967L306.803 337.974L304 338.158V340.967H307ZM307 341V344H310V341H307ZM289 341V338H286V341H289ZM289 402.846V405.846H292V402.846H289ZM288.967 402.846V399.846H286.156L285.974 402.651L288.967 402.846ZM259.033 402.846L262.026 402.651L261.844 399.846H259.033V402.846ZM259 402.846H256V405.846H259V402.846ZM259 341H262V338H259V341ZM242 341H239V344H242V341ZM242 340.967H245V338.158L242.197 337.974L242 340.967ZM242 311.033L242.197 314.026L245 313.842V311.033H242ZM242 311V308H239V311H242ZM306 308H274V314H306V308ZM307 308H306V314H307V308ZM310 311.033V311H304V311.033H310ZM324 326C324 316.461 316.582 308.657 307.197 308.039L306.803 314.026C313.055 314.438 318 319.643 318 326H324ZM307.197 343.961C316.582 343.343 324 335.539 324 326H318C318 332.357 313.055 337.562 306.803 337.974L307.197 343.961ZM310 341V340.967H304V341H310ZM306 344H307V338H306V344ZM289 344H306V338H289V344ZM286 341V401.835H292V341H286ZM286 401.835V402.846H292V401.835H286ZM289 399.846H288.967V405.846H289V399.846ZM285.974 402.651C285.559 409.016 280.329 414 274 414V420C283.568 420 291.346 412.484 291.961 403.041L285.974 402.651ZM274 414C267.671 414 262.441 409.016 262.026 402.651L256.039 403.041C256.654 412.484 264.432 420 274 420V414ZM259.033 399.846H259V405.846H259.033V399.846ZM262 402.846V401.835H256V402.846H262ZM262 401.835V341H256V401.835H262ZM243 344H259V338H243V344ZM242 344H243V338H242V344ZM239 340.967V341H245V340.967H239ZM225 326C225 335.539 232.418 343.343 241.803 343.961L242.197 337.974C235.945 337.562 231 332.357 231 326H225ZM241.803 308.039C232.418 308.657 225 316.461 225 326H231C231 319.643 235.945 314.438 242.197 314.026L241.803 308.039ZM239 311V311.033H245V311H239ZM243 308H242V314H243V308ZM274 308H243V314H274V308Z" fill="black" mask="url(#path-17-inside-8_0_1)"/>
<path fill-rule="evenodd" clip-rule="evenodd" d="M34 311C38.3223 311 42.2175 312.828 44.9548 315.753L44.9778 315.733L83 359.473V326C83 317.716 89.7157 311 98 311C106.284 311 113 317.716 113 326V402V403H112.967C112.453 410.818 105.948 417 98 417C93.4985 417 89.4602 415.017 86.7107 411.877L86.6802 411.902L50.9829 368.369L49 366.088V403C49 411.284 42.2843 418 34 418C25.7157 418 19 411.284 19 403V326C19 317.716 25.7157 311 34 311Z" fill="#808080"/>
<path d="M44.9548 315.753L43.8595 316.778L44.8475 317.834L45.9389 316.885L44.9548 315.753ZM44.9778 315.733L46.1099 314.749L45.1258 313.617L43.9938 314.601L44.9778 315.733ZM83 359.473L81.8679 360.457L84.5 363.485V359.473H83ZM113 403V404.5H114.5V403H113ZM112.967 403V401.5H111.563L111.47 402.901L112.967 403ZM86.7107 411.877L87.8393 410.889L86.8826 409.797L85.7597 410.717L86.7107 411.877ZM86.6802 411.902L85.5203 412.853L86.4714 414.013L87.6313 413.062L86.6802 411.902ZM50.9829 368.369L52.1428 367.418L52.1292 367.401L52.115 367.385L50.9829 368.369ZM49 366.088L50.1321 365.104L47.5 362.076V366.088H49ZM46.0501 314.728C43.041 311.513 38.7544 309.5 34 309.5V312.5C37.8901 312.5 41.394 314.143 43.8595 316.778L46.0501 314.728ZM43.9938 314.601L43.9707 314.621L45.9389 316.885L45.9619 316.865L43.9938 314.601ZM84.1321 358.489L46.1099 314.749L43.8458 316.717L81.8679 360.457L84.1321 358.489ZM84.5 359.473V326H81.5V359.473H84.5ZM84.5 326C84.5 318.544 90.5442 312.5 98 312.5V309.5C88.8873 309.5 81.5 316.887 81.5 326H84.5ZM98 312.5C105.456 312.5 111.5 318.544 111.5 326H114.5C114.5 316.887 107.113 309.5 98 309.5V312.5ZM111.5 326V402H114.5V326H111.5ZM111.5 402V403H114.5V402H111.5ZM113 401.5H112.967V404.5H113V401.5ZM111.47 402.901C111.007 409.936 105.153 415.5 98 415.5V418.5C106.744 418.5 113.898 411.7 114.464 403.099L111.47 402.901ZM98 415.5C93.9489 415.5 90.316 413.718 87.8393 410.889L85.5822 412.865C88.6044 416.317 93.0481 418.5 98 418.5V415.5ZM85.7597 410.717L85.7291 410.742L87.6313 413.062L87.6618 413.037L85.7597 410.717ZM87.8401 410.951L52.1428 367.418L49.823 369.32L85.5203 412.853L87.8401 410.951ZM47.8679 367.072L49.8509 369.353L52.115 367.385L50.1321 365.104L47.8679 367.072ZM50.5 403V366.088H47.5V403H50.5ZM34 419.5C43.1127 419.5 50.5 412.113 50.5 403H47.5C47.5 410.456 41.4558 416.5 34 416.5V419.5ZM17.5 403C17.5 412.113 24.8873 419.5 34 419.5V416.5C26.5442 416.5 20.5 410.456 20.5 403H17.5ZM17.5 326V403H20.5V326H17.5ZM34 309.5C24.8873 309.5 17.5 316.887 17.5 326H20.5C20.5 318.544 26.5442 312.5 34 312.5V309.5Z" fill="black"/>
<mask id="path-21-inside-9_0_1" fill="white">
<path fill-rule="evenodd" clip-rule="evenodd" d="M396 326C396 317.716 389.284 311 381 311C372.716 311 366 317.716 366 326V373H366.094C367.641 397.56 388.05 417 413 417C437.95 417 458.359 397.56 459.906 373H460V326C460 317.716 453.284 311 445 311C436.716 311 430 317.716 430 326L430 373C430 382.389 422.389 390 413 390C403.611 390 396 382.389 396 373H396V369V326Z"/>
</mask>
<path fill-rule="evenodd" clip-rule="evenodd" d="M396 326C396 317.716 389.284 311 381 311C372.716 311 366 317.716 366 326V373H366.094C367.641 397.56 388.05 417 413 417C437.95 417 458.359 397.56 459.906 373H460V326C460 317.716 453.284 311 445 311C436.716 311 430 317.716 430 326L430 373C430 382.389 422.389 390 413 390C403.611 390 396 382.389 396 373H396V369V326Z" fill="#808080"/>
<path d="M366 373H363V376H366V373ZM366.094 373L369.088 372.811L368.911 370H366.094V373ZM459.906 373V370H457.089L456.912 372.811L459.906 373ZM460 373V376H463V373H460ZM430 326L427 326L427 326L430 326ZM430 373L433 373L433 373L430 373ZM396 373H399V370H396V373ZM396 373H393V376H396V373ZM381 314C387.627 314 393 319.373 393 326H399C399 316.059 390.941 308 381 308V314ZM369 326C369 319.373 374.373 314 381 314V308C371.059 308 363 316.059 363 326H369ZM363 326V373H369V326H363ZM366 376H366.094V370H366V376ZM363.1 373.189C364.746 399.319 386.457 420 413 420V414C389.644 414 370.536 395.8 369.088 372.811L363.1 373.189ZM413 420C439.543 420 461.254 399.319 462.9 373.189L456.912 372.811C455.464 395.8 436.356 414 413 414V420ZM459.906 376H460V370H459.906V376ZM463 373V326H457V373H463ZM463 326C463 316.059 454.941 308 445 308V314C451.627 314 457 319.373 457 326H463ZM445 308C435.059 308 427 316.059 427 326H433C433 319.373 438.373 314 445 314V308ZM427 326L427 373L433 373L433 326L427 326ZM427 373C427 380.732 420.732 387 413 387V393C424.046 393 433 384.046 433 373H427ZM413 387C405.268 387 399 380.732 399 373H393C393 384.046 401.954 393 413 393V387ZM396 370H396V376H396V370ZM399 373V369H393V373H399ZM399 369V326H393V369H399Z" fill="black" mask="url(#path-21-inside-9_0_1)"/>
<mask id="path-23-inside-10_0_1" fill="white">
<path fill-rule="evenodd" clip-rule="evenodd" d="M533.19 318.85C533.378 319.197 533.553 319.551 533.714 319.914L570.512 393.723C572.084 396.096 573 398.941 573 402C573 410.284 566.284 417 558 417L482 417C473.716 417 467 410.284 467 402C467 398.941 467.916 396.096 469.488 393.723L506.286 319.914C508.62 314.662 513.882 311 520 311C525.695 311 530.649 314.174 533.19 318.85ZM534.635 387L520 357.645L505.365 387H534.635Z"/>
</mask>
<path fill-rule="evenodd" clip-rule="evenodd" d="M533.19 318.85C533.378 319.197 533.553 319.551 533.714 319.914L570.512 393.723C572.084 396.096 573 398.941 573 402C573 410.284 566.284 417 558 417L482 417C473.716 417 467 410.284 467 402C467 398.941 467.916 396.096 469.488 393.723L506.286 319.914C508.62 314.662 513.882 311 520 311C525.695 311 530.649 314.174 533.19 318.85ZM534.635 387L520 357.645L505.365 387H534.635Z" fill="#808080"/>
<path d="M533.19 318.85L535.826 317.418L533.19 318.85ZM533.714 319.914L530.972 321.132L530.999 321.193L531.029 321.252L533.714 319.914ZM570.512 393.723L567.827 395.062L567.909 395.227L568.011 395.381L570.512 393.723ZM558 417L558 420L558 420L558 417ZM482 417L482 414H482V417ZM469.488 393.723L471.989 395.381L472.091 395.227L472.173 395.062L469.488 393.723ZM506.286 319.914L508.971 321.252L509.001 321.193L509.028 321.132L506.286 319.914ZM534.635 387V390H539.483L537.32 385.661L534.635 387ZM520 357.645L522.685 356.307L520 350.921L517.315 356.307L520 357.645ZM505.365 387L502.68 385.661L500.517 390H505.365V387ZM530.553 320.282C530.704 320.559 530.844 320.843 530.972 321.132L536.455 318.695C536.262 318.26 536.052 317.834 535.826 317.418L530.553 320.282ZM531.029 321.252L567.827 395.062L573.197 392.385L536.399 318.575L531.029 321.252ZM568.011 395.381C569.268 397.277 570 399.548 570 402H576C576 398.333 574.9 394.914 573.013 392.066L568.011 395.381ZM570 402C570 408.627 564.627 414 558 414L558 420C567.941 420 576 411.941 576 402H570ZM558 414L482 414L482 420L558 420L558 414ZM482 414C475.373 414 470 408.627 470 402H464C464 411.941 472.059 420 482 420V414ZM470 402C470 399.548 470.732 397.277 471.989 395.381L466.987 392.066C465.1 394.914 464 398.333 464 402H470ZM472.173 395.062L508.971 321.252L503.601 318.575L466.803 392.385L472.173 395.062ZM509.028 321.132C510.898 316.925 515.111 314 520 314V308C512.654 308 506.343 312.4 503.545 318.695L509.028 321.132ZM520 314C524.552 314 528.517 316.534 530.553 320.282L535.826 317.418C532.782 311.815 526.839 308 520 308V314ZM537.32 385.661L522.685 356.307L517.315 358.984L531.95 388.339L537.32 385.661ZM517.315 356.307L502.68 385.661L508.05 388.339L522.685 358.984L517.315 356.307ZM505.365 390H534.635V384H505.365V390Z" fill="black" mask="url(#path-23-inside-10_0_1)"/>
<g filter="url(#filter0_d_0_1)">
<mask id="path-25-outside-11_0_1" maskUnits="userSpaceOnUse" x="226" y="188" width="108" height="108" fill="black">
<rect fill="white" x="226" y="188" width="108" height="108"/>
<path fill-rule="evenodd" clip-rule="evenodd" d="M280 293C308.167 293 331 270.167 331 242C331 213.833 308.167 191 280 191C251.833 191 229 213.833 229 242C229 270.167 251.833 293 280 293ZM280 260.943C291.535 260.943 300.886 251.592 300.886 240.057C300.886 228.522 291.535 219.171 280 219.171C268.465 219.171 259.114 228.522 259.114 240.057C259.114 251.592 268.465 260.943 280 260.943Z"/>
</mask>
<path fill-rule="evenodd" clip-rule="evenodd" d="M280 293C308.167 293 331 270.167 331 242C331 213.833 308.167 191 280 191C251.833 191 229 213.833 229 242C229 270.167 251.833 293 280 293ZM280 260.943C291.535 260.943 300.886 251.592 300.886 240.057C300.886 228.522 291.535 219.171 280 219.171C268.465 219.171 259.114 228.522 259.114 240.057C259.114 251.592 268.465 260.943 280 260.943Z" fill="#808080"/>
<path d="M328 242C328 268.51 306.51 290 280 290V296C309.823 296 334 271.823 334 242H328ZM280 194C306.51 194 328 215.49 328 242H334C334 212.177 309.823 188 280 188V194ZM232 242C232 215.49 253.49 194 280 194V188C250.177 188 226 212.177 226 242H232ZM280 290C253.49 290 232 268.51 232 242H226C226 271.823 250.177 296 280 296V290ZM297.886 240.057C297.886 249.935 289.878 257.943 280 257.943V263.943C293.192 263.943 303.886 253.249 303.886 240.057H297.886ZM280 222.171C289.878 222.171 297.886 230.179 297.886 240.057H303.886C303.886 226.865 293.192 216.171 280 216.171V222.171ZM262.114 240.057C262.114 230.179 270.122 222.171 280 222.171V216.171C266.808 216.171 256.114 226.865 256.114 240.057H262.114ZM280 257.943C270.122 257.943 262.114 249.935 262.114 240.057H256.114C256.114 253.249 266.808 263.943 280 263.943V257.943Z" fill="black" mask="url(#path-25-outside-11_0_1)"/>
</g>
<mask id="path-27-inside-12_0_1" fill="white">
<path fill-rule="evenodd" clip-rule="evenodd" d="M86 190H42C23.7746 190 9 204.775 9 223C9 241.225 23.7746 256 42 256H53H66C68.7614 256 71 258.239 71 261C71 263.761 68.7614 266 66 266H31.3544H24C15.7157 266 9 272.716 9 281C9 289.284 15.7157 296 24 296H66H67V295.986C85.8675 295.457 101 279.996 101 261C101 241.67 85.33 226 66 226H39C37.3431 226 36 224.657 36 223C36 221.343 37.3431 220 39 220H86C94.2843 220 101 213.284 101 205C101 196.716 94.2843 190 86 190Z"/>
</mask>
<path fill-rule="evenodd" clip-rule="evenodd" d="M86 190H42C23.7746 190 9 204.775 9 223C9 241.225 23.7746 256 42 256H53H66C68.7614 256 71 258.239 71 261C71 263.761 68.7614 266 66 266H31.3544H24C15.7157 266 9 272.716 9 281C9 289.284 15.7157 296 24 296H66H67V295.986C85.8675 295.457 101 279.996 101 261C101 241.67 85.33 226 66 226H39C37.3431 226 36 224.657 36 223C36 221.343 37.3431 220 39 220H86C94.2843 220 101 213.284 101 205C101 196.716 94.2843 190 86 190Z" fill="#808080"/>
<path d="M67 296V299H70V296H67ZM67 295.986L66.9159 292.987L64 293.069V295.986H67ZM42 193H86V187H42V193ZM12 223C12 206.431 25.4315 193 42 193V187C22.1177 187 6 203.118 6 223H12ZM42 253C25.4315 253 12 239.569 12 223H6C6 242.882 22.1177 259 42 259V253ZM53 253H42V259H53V253ZM66 253H53V259H66V253ZM74 261C74 256.582 70.4183 253 66 253V259C67.1046 259 68 259.895 68 261H74ZM66 269C70.4183 269 74 265.418 74 261H68C68 262.105 67.1046 263 66 263V269ZM31.3544 269H66V263H31.3544V269ZM24 269H31.3544V263H24V269ZM12 281C12 274.373 17.3726 269 24 269V263C14.0589 263 6 271.059 6 281H12ZM24 293C17.3726 293 12 287.627 12 281H6C6 290.941 14.0589 299 24 299V293ZM66 293H24V299H66V293ZM67 293H66V299H67V293ZM64 295.986V296H70V295.986H64ZM98 261C98 278.367 84.1645 292.503 66.9159 292.987L67.0841 298.985C87.5705 298.41 104 281.624 104 261H98ZM66 229C83.6731 229 98 243.327 98 261H104C104 240.013 86.9868 223 66 223V229ZM39 229H66V223H39V229ZM33 223C33 226.314 35.6863 229 39 229V223H33ZM39 217C35.6863 217 33 219.686 33 223H39V217ZM86 217H39V223H86V217ZM98 205C98 211.627 92.6274 217 86 217V223C95.9411 223 104 214.941 104 205H98ZM86 193C92.6274 193 98 198.373 98 205H104C104 195.059 95.9411 187 86 187V193Z" fill="black" mask="url(#path-27-inside-12_0_1)"/>
<defs>
<filter id="filter0_d_0_1" x="222" y="188" width="116" height="116" filterUnits="userSpaceOnUse" color-interpolation-filters="sRGB">
<feFlood flood-opacity="0" result="BackgroundImageFix"/>
<feColorMatrix in="SourceAlpha" type="matrix" values="0 0 0 0 0 0 0 0 0 0 0 0 0 0 0 0 0 0 127 0" result="hardAlpha"/>
<feOffset dy="4"/>
<feGaussianBlur stdDeviation="2"/>
<feComposite in2="hardAlpha" operator="out"/>
<feColorMatrix type="matrix" values="0 0 0 0 0 0 0 0 0 0 0 0 0 0 0 0 0 0 0.25 0"/>
<feBlend mode="normal" in2="BackgroundImageFix" result="effect1_dropShadow_0_1"/>
<feBlend mode="normal" in="SourceGraphic" in2="effect1_dropShadow_0_1" result="shape"/>
</filter>
</defs>
</svg>
